<svg width="374" height="196" viewBox="0 0 374 196" fill="none" xmlns="http://www.w3.org/2000/svg"><g clip-path="url(#a)"><rect width="374" height="196" rx="3" fill="url(#b)" fill-opacity=".6"/><path d="M214.35 71.884L374-31v269L213.991 132.171c-21.674-14.335-21.485-46.21.359-60.287z" fill="#FF906E" fill-opacity=".7"/><path d="M231.538 76.912v14.184h8.136V94h-11.376V76.912h3.24zM252.485 94h-3.024c-.144-.256-.256-.76-.336-1.512-.832 1.2-2.16 1.8-3.984 1.8-1.36 0-2.448-.328-3.264-.984-.8-.656-1.2-1.568-1.2-2.736 0-2.256 1.584-3.544 4.752-3.864l1.872-.168c.624-.08 1.072-.224 1.344-.432.272-.224.408-.552.408-.984 0-.528-.176-.912-.528-1.152-.336-.256-.912-.384-1.728-.384-.88 0-1.512.152-1.896.456-.384.288-.608.792-.672 1.512h-2.976c.176-2.816 2.032-4.224 5.568-4.224 3.44 0 5.16 1.24 5.16 3.72v6.6c0 1.088.168 1.872.504 2.352zm-6.624-1.872c.944 0 1.712-.256 2.304-.768.592-.528.888-1.28.888-2.256v-1.128c-.288.256-.76.424-1.416.504l-1.632.192c-.8.096-1.376.288-1.728.576-.336.272-.504.672-.504 1.2 0 .528.176.944.528 1.248.368.288.888.432 1.56.432zm16.491-3.576v-6.936h3.024V94h-2.928v-1.8c-.944 1.392-2.24 2.088-3.888 2.088-1.328 0-2.384-.384-3.168-1.152-.768-.784-1.152-1.888-1.152-3.312v-8.208h3.024v7.704c0 1.568.776 2.352 2.328 2.352.768 0 1.416-.272 1.944-.816.544-.56.816-1.328.816-2.304zm12.273-7.224c1.344 0 2.4.392 3.168 1.176.784.768 1.176 1.864 1.176 3.288V94h-3.024v-7.704c0-1.568-.776-2.352-2.328-2.352-.768 0-1.424.28-1.968.84-.528.544-.792 1.304-.792 2.28V94h-3.024V81.616h2.928v1.776c.944-1.376 2.232-2.064 3.864-2.064zm12.37 12.96c-1.824 0-3.304-.592-4.44-1.776-1.12-1.168-1.68-2.736-1.68-4.704 0-1.984.56-3.56 1.68-4.728 1.104-1.168 2.584-1.752 4.44-1.752 1.616 0 2.936.432 3.96 1.296 1.024.848 1.624 2 1.8 3.456h-3.024c-.144-.72-.456-1.272-.936-1.656-.48-.384-1.08-.576-1.8-.576-.944 0-1.688.344-2.232 1.032-.528.672-.792 1.648-.792 2.928s.272 2.264.816 2.952c.544.672 1.28 1.008 2.208 1.008.736 0 1.352-.2 1.848-.6.512-.416.824-1.008.936-1.776h3.024c-.16 1.488-.768 2.68-1.824 3.576-1.056.88-2.384 1.32-3.984 1.32zm14.255-12.96c1.344 0 2.4.392 3.168 1.176.784.768 1.176 1.864 1.176 3.288V94h-3.024v-7.704c0-1.568-.776-2.352-2.328-2.352-.768 0-1.424.28-1.968.84-.528.544-.792 1.304-.792 2.28V94h-3.024V76.912h3.024v6.36c.944-1.296 2.2-1.944 3.768-1.944zm25.878 4.92l1.392-4.632h3.24L327.68 94h-3.168l-1.56-5.088c-.592-2.08-.944-3.312-1.056-3.696-.048.176-.392 1.408-1.032 3.696L319.328 94h-3.168l-4.08-12.384h3.24l1.392 4.632c.352 1.104.76 2.536 1.224 4.296a96.38 96.38 0 0 1 1.176-4.32l1.368-4.608h2.88l1.368 4.608a96.38 96.38 0 0 1 1.176 4.32 97.71 97.71 0 0 1 1.224-4.296zm8.815-6.24h-2.976v-2.832h2.976v2.832zM335.967 94h-3.024V81.616h3.024V94zm8.893-12.384v2.304h-2.448v6.696c0 .4.104.68.312.84.224.16.592.24 1.104.24h1.032V94c-.656.064-1.184.096-1.584.096-1.344 0-2.328-.248-2.952-.744-.608-.512-.912-1.32-.912-2.424V83.92h-1.92v-2.304h1.92v-3.6h3v3.6h2.448zm8.562-.288c1.344 0 2.4.392 3.168 1.176.784.768 1.176 1.864 1.176 3.288V94h-3.024v-7.704c0-1.568-.776-2.352-2.328-2.352-.768 0-1.424.28-1.968.84-.528.544-.792 1.304-.792 2.28V94h-3.024V76.912h3.024v6.36c.944-1.296 2.2-1.944 3.768-1.944zm-66.341 26.584v2.904h-8.832v4.032h8.04v2.784h-8.04V125h-3.24v-17.088h12.072zm9.396 11.64v-6.936h3.024V125h-2.928v-1.8c-.944 1.392-2.24 2.088-3.888 2.088-1.328 0-2.384-.384-3.168-1.152-.768-.784-1.152-1.888-1.152-3.312v-8.208h3.024v7.704c0 1.568.776 2.352 2.328 2.352.768 0 1.416-.272 1.944-.816.544-.56.816-1.328.816-2.304zm12.273-7.224c1.344 0 2.4.392 3.168 1.176.784.768 1.176 1.864 1.176 3.288V125h-3.024v-7.704c0-1.568-.776-2.352-2.328-2.352-.768 0-1.424.28-1.968.84-.528.544-.792 1.304-.792 2.28V125h-3.024v-12.384h2.928v1.776c.944-1.376 2.232-2.064 3.864-2.064zm13.594 0c1.344 0 2.4.392 3.168 1.176.784.768 1.176 1.864 1.176 3.288V125h-3.024v-7.704c0-1.568-.776-2.352-2.328-2.352-.768 0-1.424.28-1.968.84-.528.544-.792 1.304-.792 2.28V125h-3.024v-12.384h2.928v1.776c.944-1.376 2.232-2.064 3.864-2.064zm18.49 6.696v.72h-9.264c.112 1.056.44 1.856.984 2.4.56.528 1.304.792 2.232.792 1.376 0 2.32-.592 2.832-1.776h2.904c-.32 1.264-.992 2.272-2.016 3.024-1.024.736-2.272 1.104-3.744 1.104-1.84 0-3.328-.592-4.464-1.776-1.136-1.184-1.704-2.752-1.704-4.704s.56-3.52 1.68-4.704c1.136-1.184 2.616-1.776 4.44-1.776 1.872 0 3.36.616 4.464 1.848 1.104 1.232 1.656 2.848 1.656 4.848zm-6.144-4.344c-1.776 0-2.808.984-3.096 2.952h6.216c-.128-.912-.464-1.632-1.008-2.16-.544-.528-1.248-.792-2.112-.792zM345.811 125h-3.024v-17.088h3.024V125zm7.308.336c-3.616 0-5.504-1.424-5.664-4.272h2.952c.08.768.328 1.312.744 1.632.432.32 1.104.48 2.016.48 1.632 0 2.448-.496 2.448-1.488 0-.448-.176-.792-.528-1.032-.352-.24-.984-.44-1.896-.6l-1.416-.24c-2.704-.448-4.056-1.696-4.056-3.744 0-1.168.448-2.08 1.344-2.736.896-.672 2.16-1.008 3.792-1.008 3.536 0 5.36 1.4 5.472 4.2h-2.856c-.032-.736-.264-1.256-.696-1.56-.432-.32-1.072-.48-1.92-.48-1.44 0-2.16.48-2.16 1.44 0 .416.16.744.48.984.32.224.848.4 1.584.528l1.56.24c1.504.272 2.592.704 3.264 1.296.688.592 1.032 1.416 1.032 2.472 0 1.248-.48 2.208-1.44 2.88-.96.672-2.312 1.008-4.056 1.008z" fill="#fff"/></g><defs><linearGradient id="b" x1="46.369" y1="115.313" x2="369.875" y2="196.338" gradientUnits="userSpaceOnUse"><stop stop-color="#D853AB" stop-opacity=".6"/><stop offset=".443" stop-color="#DC5EA6"/><stop offset=".891" stop-color="#F90"/></linearGradient><clipPath id="a"><rect width="374" height="196" rx="3" fill="#fff"/></clipPath></defs></svg>