<svg width="1440" height="500" viewBox="0 0 1440 500" fill="none" xmlns="http://www.w3.org/2000/svg"><path fill="#4B6782" d="M0 0h1440v500H0z"/><path fill="url(#a)" d="M0 0h1440v500H0z"/><g opacity=".21"><mask id="c" maskUnits="userSpaceOnUse" x="0" y="0" width="1440" height="500"><path fill="#4B6782" d="M0 0h1440v500H0z"/><path fill="url(#b)" d="M0 0h1440v500H0z"/></mask><g mask="url(#c)"><g style="mix-blend-mode:multiply"><path d="M848.409 5.201l500.831-370.81c21.62-17.904 53.53-14.917 71.42 6.688 17.88 21.604 14.87 53.505-6.76 71.409L867.945 120.663c-10.073 8.341-15.47 19.595-15.829 32.558l-2.089 96.727c-.248 13.098-5.756 24.217-15.829 32.558-71.451 59.161-382.472 306.003-453.924 365.164-21.623 17.904-53.527 14.916-71.415-6.688-17.888-21.604-14.872-53.505 6.752-71.409l499.185-402.641c10.073-8.34 15.47-19.594 15.695-32.446l2.089-96.727c.359-12.963 5.756-24.218 15.829-32.558z" fill="#00B2FF"/><path d="M848.409 5.201l500.831-370.81c21.62-17.904 53.53-14.917 71.42 6.688 17.88 21.604 14.87 53.505-6.76 71.409L867.945 120.663c-10.073 8.341-15.47 19.595-15.829 32.558l-2.089 96.727c-.248 13.098-5.756 24.217-15.829 32.558-71.451 59.161-382.472 306.003-453.924 365.164-21.623 17.904-53.527 14.916-71.415-6.688-17.888-21.604-14.872-53.505 6.752-71.409l499.185-402.641c10.073-8.34 15.47-19.594 15.695-32.446l2.089-96.727c.359-12.963 5.756-24.218 15.829-32.558z" fill="url(#d)" fill-opacity=".4"/></g><g style="mix-blend-mode:multiply"><path d="M897.858 237.275l500.832-370.81c21.62-17.904 53.53-14.916 71.42 6.688 17.88 21.604 14.87 53.505-6.76 71.41L917.394 352.737c-10.073 8.34-15.47 19.594-15.829 32.558l-2.089 96.726c-.248 13.098-5.756 24.217-15.829 32.558-71.451 59.161-382.472 306.003-453.923 365.164-21.624 17.904-53.528 14.917-71.416-6.688-17.888-21.604-14.872-53.505 6.752-71.409l499.185-402.64c10.073-8.341 15.47-19.595 15.695-32.447l2.089-96.727c.359-12.963 5.756-24.217 15.829-32.558z" fill="#00B2FF"/><path d="M897.858 237.275l500.832-370.81c21.62-17.904 53.53-14.916 71.42 6.688 17.88 21.604 14.87 53.505-6.76 71.41L917.394 352.737c-10.073 8.34-15.47 19.594-15.829 32.558l-2.089 96.726c-.248 13.098-5.756 24.217-15.829 32.558-71.451 59.161-382.472 306.003-453.923 365.164-21.624 17.904-53.528 14.917-71.416-6.688-17.888-21.604-14.872-53.505 6.752-71.409l499.185-402.64c10.073-8.341 15.47-19.595 15.695-32.447l2.089-96.727c.359-12.963 5.756-24.217 15.829-32.558z" fill="url(#e)" fill-opacity=".4"/></g><g style="mix-blend-mode:multiply"><path d="M957.667 466.955L1458.5 96.145c21.62-17.904 53.53-14.917 71.41 6.688 17.89 21.604 14.88 53.505-6.75 71.409L977.203 582.417c-10.073 8.341-15.47 19.595-15.829 32.558l-2.089 96.727c-.248 13.097-5.756 24.217-15.829 32.558-71.452 59.161-382.472 306-453.924 365.16-21.623 17.91-53.527 14.92-71.415-6.68-17.888-21.61-14.872-53.51 6.751-71.41l499.186-402.644c10.073-8.34 15.47-19.594 15.694-32.447l2.089-96.726c.36-12.964 5.757-24.218 15.83-32.558z" fill="#00B2FF"/><path d="M957.667 466.955L1458.5 96.145c21.62-17.904 53.53-14.917 71.41 6.688 17.89 21.604 14.88 53.505-6.75 71.409L977.203 582.417c-10.073 8.341-15.47 19.595-15.829 32.558l-2.089 96.727c-.248 13.097-5.756 24.217-15.829 32.558-71.452 59.161-382.472 306-453.924 365.16-21.623 17.91-53.527 14.92-71.415-6.68-17.888-21.61-14.872-53.51 6.751-71.41l499.186-402.644c10.073-8.34 15.47-19.594 15.694-32.447l2.089-96.726c.36-12.964 5.757-24.218 15.83-32.558z" fill="url(#f)" fill-opacity=".4"/></g></g></g><path fill="url(#g)" d="M0 0h1440v500H0z"/><mask id="i" maskUnits="userSpaceOnUse" x="0" y="0" width="1440" height="500"><path fill="url(#h)" d="M0 0h1440v500H0z"/></mask><g mask="url(#i)"><g style="mix-blend-mode:multiply" opacity=".13"><path d="M899.884-92.725l528.926-391.611c22.84-18.908 56.53-15.753 75.42 7.063s15.71 56.507-7.13 75.415L920.516 29.215c-10.638 8.808-16.338 20.693-16.717 34.384l-2.206 102.152c-.262 13.833-6.079 25.576-16.717 34.385-75.46 62.48-403.927 323.168-479.387 385.648-22.837 18.909-56.53 15.753-75.422-7.063-18.891-22.816-15.706-56.506 7.131-75.415L864.385 78.079c10.639-8.808 16.338-20.693 16.575-34.267l2.207-102.152c.379-13.69 6.079-25.576 16.717-34.385z" fill="url(#j)" style="mix-blend-mode:multiply"/><path d="M899.884-92.725l528.926-391.611c22.84-18.908 56.53-15.753 75.42 7.063s15.71 56.507-7.13 75.415L920.516 29.215c-10.638 8.808-16.338 20.693-16.717 34.384l-2.206 102.152c-.262 13.833-6.079 25.576-16.717 34.385-75.46 62.48-403.927 323.168-479.387 385.648-22.837 18.909-56.53 15.753-75.422-7.063-18.891-22.816-15.706-56.506 7.131-75.415L864.385 78.079c10.639-8.808 16.338-20.693 16.575-34.267l2.207-102.152c.379-13.69 6.079-25.576 16.717-34.385z" fill="#0784B2"/></g><g style="mix-blend-mode:multiply" opacity=".13"><path d="M920.103 185.369l528.927-391.611c22.84-18.909 56.53-15.753 75.42 7.063s15.71 56.507-7.13 75.415L940.735 307.309c-10.638 8.808-16.338 20.693-16.717 34.384l-2.206 102.152c-.262 13.833-6.079 25.576-16.717 34.385-75.46 62.48-403.928 323.168-479.387 385.648-22.837 18.908-56.53 15.753-75.422-7.063-18.891-22.816-15.706-56.507 7.131-75.415l527.187-425.227c10.638-8.808 16.338-20.694 16.575-34.267l2.206-102.152c.38-13.691 6.079-25.577 16.718-34.385z" fill="url(#k)" style="mix-blend-mode:multiply"/><path d="M920.103 185.369l528.927-391.611c22.84-18.909 56.53-15.753 75.42 7.063s15.71 56.507-7.13 75.415L940.735 307.309c-10.638 8.808-16.338 20.693-16.717 34.384l-2.206 102.152c-.262 13.833-6.079 25.576-16.717 34.385-75.46 62.48-403.928 323.168-479.387 385.648-22.837 18.908-56.53 15.753-75.422-7.063-18.891-22.816-15.706-56.507 7.131-75.415l527.187-425.227c10.638-8.808 16.338-20.694 16.575-34.267l2.206-102.152c.38-13.691 6.079-25.577 16.718-34.385z" fill="#0784B2"/></g><g style="mix-blend-mode:multiply" opacity=".13"><path d="M936.884 467.275l528.926-391.61c22.84-18.91 56.53-15.754 75.42 7.062s15.71 56.507-7.13 75.415L957.516 589.215c-10.638 8.808-16.338 20.693-16.717 34.384l-2.206 102.152c-.262 13.833-6.079 25.576-16.717 34.385-75.46 62.48-403.927 323.164-479.387 385.644-22.837 18.91-56.53 15.76-75.422-7.06-18.891-22.81-15.706-56.51 7.131-75.41l527.187-425.231c10.639-8.808 16.338-20.693 16.575-34.267l2.207-102.152c.379-13.691 6.079-25.576 16.717-34.385z" fill="url(#l)" style="mix-blend-mode:multiply"/><path d="M936.884 467.275l528.926-391.61c22.84-18.91 56.53-15.754 75.42 7.062s15.71 56.507-7.13 75.415L957.516 589.215c-10.638 8.808-16.338 20.693-16.717 34.384l-2.206 102.152c-.262 13.833-6.079 25.576-16.717 34.385-75.46 62.48-403.927 323.164-479.387 385.644-22.837 18.91-56.53 15.76-75.422-7.06-18.891-22.81-15.706-56.51 7.131-75.41l527.187-425.231c10.639-8.808 16.338-20.693 16.575-34.267l2.207-102.152c.379-13.691 6.079-25.576 16.717-34.385z" fill="#0784B2"/></g></g><path fill="#0038C7" d="M0 0h1440v500H0z"/><path fill="url(#m)" fill-opacity=".75" d="M0 0h1440v500H0z"/><mask id="o" maskUnits="userSpaceOnUse" x="0" y="0" width="1440" height="500"><path fill="url(#n)" d="M0 0h1440v500H0z"/></mask><g mask="url(#o)"><path opacity=".3" d="M161.087 741.084l-.177-.214-2.31 1.913c-33.212 27.499-82.201 22.909-109.672-10.268-27.47-33.177-22.841-82.163 10.37-109.662l240.758-199.345 23.133-19.154c16.734-13.856 25.742-32.625 26.117-54.002v-.004l3.331-154.249.001-.008c.378-19.999 8.539-36.738 24.158-49.671L568.502-12.311C601.714-39.81 650.704-35.22 678.174-2.043c27.47 33.177 22.841 82.163-10.37 109.662L543.355 210.661l-75.183 62.252-64.045 53.028c-16.72 13.844-25.918 32.393-26.331 54.179l-3.154 154.471v.005c-.379 20.004-8.545 36.742-23.944 49.493L161.087 741.084zM312.583-3.466l-.001.009v.009l-3.331 154.262-.001.008c-.378 19.992-8.748 36.911-24.158 49.67l-.668.553-.667.553-.668.553-.668.553-.667.552-.668.553-.668.553-.667.553-.668.553-.668.552-.667.553-.668.553-.667.553-.668.553-.668.552-.667.553-.668.553-.668.553-.667.553-.668.552-.667.553-.668.553-.668.553-.667.552-.668.553-.667.553-.668.553-.667.552-.668.553-.668.553-.667.552-.668.553-.667.553-.668.553-.667.552-.668.553-.667.553-.668.552-.667.553-.668.553-.667.553-.668.552-.667.553-.668.553-.667.552-.668.553-.667.553-.668.552-.667.553-.668.553-.667.552-.668.553-.667.553-.668.552-.667.553-.668.553-.667.552-.667.553-.668.552-.667.553-.668.553-.667.552-.668.553-.667.553-.667.552-.668.553-.667.552-.668.553-.667.553-.667.552-.668.553-.667.552-.668.553-.667.553-.667.552-.668.553-.667.552-.668.553-.667.553-.667.552-.668.553-.667.552-.667.553-.668.552-.667.553-.667.552-.668.553-.667.553-.667.552-.668.553-.667.552-.667.553-.668.552-.667.553-.667.552-.668.553-.667.552-.667.553-.668.552-.667.553-.667.552-.667.553-.668.552-.667.553-.667.553-.668.552-.667.552-.667.553-.667.552-.668.553-.667.552-.667.553-.667.552-.668.553-.667.552-.667.553-.668.552-.667.553-.667.552-.667.553-.668.552-.667.553-.667.552-.667.553-.667.552-.668.553-.667.552-.667.553-.667.552-.668.552-.667.553-.667.552-.667.553-.667.552-.668.553-.667.552-.667.553-.667.552-.667.552-.668.553-.667.552-.667.553-.667.552-.667.553-.668.552-.667.552-.667.553-.667.552-.667.553-.667.552-.668.552-.667.553-.667.552-.667.553-.667.552-.667.553-.668.552-.667.552-.667.553-.667.552-.667.553-.667.552-.668.552-.667.553-.667.552-.667.552-.667.553-.667.552-.667.553-.668.552-.667.552-.667.553-.667.552-.667.553-.667.552-.667.552-.667.553-.668.552-.667.552-.667.553-.667.552-.667.553-.667.552-.667.552-.667.553-.668.552-.667.552-.667.553-.667.552-.667.552-.667.553-.667.552-.667.552-.667.553-.667.552-.668.553-.667.552-.667.552-.667.553-.667.552-.667.552-.667.553-.667.552-.667.552-.667.553-.668.552-.667.552-.667.553-.667.552-.667.552-.667.553-.667.552-.667.552-.667.553-.667.552-.667.552-.667.553-.668.552-.667.552-.667.553-.667.552-.667.552-.667.553-.667.552-.667.552-.667.553-.667.552-.667.552-.667.553-.667.552-.668.552-.667.553-.667.552-.667.552-.667.553-.667.552-.667.552-.667.553-.667.552-.667.552-.667.553-.667.552-.667.552-.667.553-.667.552-.668.552-.667.553-.667.552-.667.552-.667.553-.667.552-.667.552-.667.553-.667.552-.667.552-.667.553-.667.552-.667.552-.667.553-.667.552-.668.552-.667.553-.667.552-.667.552-.667.553-.667.552-.667.552-.667.553-.667.552-.667.552-.667.552-.667.553-.667.552-.667.552-.667.553-.668.552-.667.552-.667.553-.667.552-.667.552-.667.553-.667.552-.667.552-.667.553-.667.552-.667.552-.667.553-.667.552-.668.552-.667.553-.667.552-.667.552-.667.553-.667.552-.667.552-.667.553-.667.552-.667.552-.667.553-.667.552-.668.552-.667.553-.667.552-.667.552-.667.553-.667.552-.667.552-.667.553-.667.552-.667.553-.667.552-.668.552-.667.553-.667.552-.667.552-.667.553-.667.552-.667.552-.667.553-.667.552-.667.552-.667.553-.668.552-.667.553-.667.552-.667.552-.667.553-.667.552-.667.552-.667.553-.668.552-.667.552-.667.553-.667.552-.667.553-.667.552-.667.552-.667.553-.668.552-.667.552-.667.553-.667.552-.667.553-.667.552-.667.552-.668.553-.667.552-.667.553-.667.552-.667.552-.667.553-.667.552-.667.552-.668.553-.667.552-.667.553-.667.552-.667.553-.667.552-.668.552-.667.553-.667.552-.667.553-.667.552-.667.552-.668.553-.667.552-.667.553-.667.552-.667.553-.668.552-.667.552-.667.553-.667.552-.667.553-.668.552-.667.553-.667.552-.667.552-.668.553-.667.552-.667.553-.667.552-.667.553-.668.552-.667.553-.667.552-.667.553-.668.552-.667.552-.667.553-.667.552-.667.553-.668.552-.667.553-.667.552-.667.553-.668.552-.667.553-.667.552-.668.553-.667.552-.667.553-.667.552-.668.553-.667.552-.667.553-.667.552-.668.553-.667.552-.667.553-.668.552-.667.553-.667.552-.668.553-.667.552-.667.553-.667.552-.668.553-.667.552-.667.553-.668.553-.667.552-.667.553-.668.552-.667.553-.667.552-.668.553-.667.552-.667.553-.668.553-.667.552-.668.553-.667.552-.667.553-.668.552-.667.553-.667.553-.668.552-.667.553-.668.552-.667.553-.667.553-.668.552-.667.553-.668.552-.667.553-.667.553-.668.552-.667.553-.668.552-.667.553-.668.553-.667.552-.668.553-.667.553-.667.552-.668.553-.667.553-.668.552-.667.553-.668.553-.667.552-.668.553-.667.553-.668.552-.667.553-.668.553-.667.552-.668.553-.667.553-.668.552-.667.553-.668.553-.667.552-.668.553-.667.553-.668.553-.667.552-.668.553-.667.553-.668.552-.667.553-.668.553-.668.553-.667.552-.668.553-.667.553-.668.553-.667.552-.668.553-.668.553-.667.553-.668.552-.668.553-.667.553-.668.553-.667.553-.668.552-.668.553-.667.553-.668.553-.668.553-.667.552-.668.553-.668.553-.667.553-.668.553-.668.553-.667.552-.668.553-.668.553c-33.211 27.499-82.201 22.908-109.671-10.268-27.47-33.177-22.841-82.163 10.37-109.662l.214-.178 413.615-342.47c16.734-13.854 25.742-32.624 26.117-54v-.004l3.331-154.232v-.011c.552-19.816 8.771-36.944 24.159-49.686l41.983-34.761c33.211-27.499 82.201-22.908 109.671 10.269 27.47 33.177 22.841 82.163-10.37 109.661L338.913-57.618c-16.739 13.859-25.734 32.623-26.33 54.152zM417.497 579.23v-.008c.379-19.998 8.539-36.737 24.159-49.67l.667-.553.668-.553.668-.552.667-.553.668-.553.668-.553.667-.553.668-.553.668-.552.667-.553.668-.553.667-.553.668-.553.668-.552.667-.553.668-.553.668-.553.667-.552.668-.553.667-.553.668-.553.668-.553.667-.552.668-.553.667-.553.668-.553.668-.552.667-.553.668-.553.667-.553.668-.552.667-.553.668-.553.667-.552.668-.553.667-.553.668-.553.668-.552.667-.553.668-.553.667-.552.668-.553.667-.553.668-.552.667-.553.668-.553.667-.552.668-.553.667-.553.667-.552.668-.553.667-.553.668-.552.667-.553.668-.553.667-.552.668-.553.667-.553.668-.552.667-.553.667-.552.668-.553.667-.553.668-.552.667-.553.668-.553.667-.552.667-.553.668-.552.667-.553.668-.553.667-.552.667-.553.668-.552.667-.553.667-.553.668-.552.667-.553.668-.552.667-.553.667-.552.668-.553.667-.553.667-.552.668-.553.667-.552.667-.553.668-.552.667-.553.667-.552.668-.553.667-.552.667-.553.668-.553.667-.552.667-.553.668-.552.667-.553.667-.552.668-.553.667-.552.667-.553.667-.552.668-.553.667-.552.667-.553.668-.552.667-.553.667-.552.667-.553.668-.552.667-.553.667-.552.667-.553.668-.552.667-.553.667-.552.667-.553.668-.552.667-.553.667-.552.667-.553.668-.552.667-.552.667-.553.667-.552.668-.553.667-.552.667-.553.667-.552.667-.553.668-.552.667-.553.667-.552.667-.552.667-.553.668-.552.667-.553.667-.552.667-.553.668-.552.667-.552.667-.553.667-.552.667-.553.667-.552.668-.553.667-.552.667-.552.667-.553.667-.552.667-.553.668-.552.667-.552.667-.553.667-.552.667-.553.667-.552.668-.552.667-.553.667-.552.667-.553.667-.552.667-.552.668-.553.667-.552.667-.553.667-.552.667-.552.667-.553.667-.552.667-.553.668-.552.667-.552.667-.553.667-.552.667-.552.667-.553.667-.552.668-.553.667-.552.667-.552.667-.553.667-.552.667-.552.667-.553.667-.552.667-.552.668-.553.667-.552.667-.553.667-.552.667-.552.667-.553.667-.552.667-.552.667-.553.667-.552.668-.552.667-.553.667-.552.667-.552.667-.553.667-.552.667-.552.667-.553.667-.552.667-.553.667-.552.668-.552.667-.553.667-.552.667-.552.667-.553.667-.552.667-.552.667-.553.667-.552.667-.552.667-.553.667-.552.668-.552.667-.553.667-.552.667-.552.667-.553.667-.552.667-.552.667-.553.667-.552.667-.552.667-.553.667-.552.667-.552.667-.553.668-.552.667-.552.667-.553.667-.552.667-.552.667-.553.667-.552.667-.552.667-.552.667-.553.667-.552.667-.552.667-.553.667-.552.668-.552.667-.553.667-.552.667-.552.667-.553.667-.552.667-.552.667-.553.667-.552.667-.552.667-.553.667-.552.667-.552.667-.553.667-.552.667-.552.668-.553.667-.552.667-.552.667-.553.667-.552.667-.552.667-.553.667-.552.667-.552.667-.553.667-.552.667-.552.667-.553.667-.552.668-.552.667-.553.667-.552.667-.552.667-.553.667-.552.667-.552.667-.553.667-.552.667-.552.667-.553.667-.552.667-.552.668-.553.667-.552.667-.552.667-.553.667-.552.667-.552.667-.553.667-.552.667-.552.667-.553.667-.552.667-.552.667-.553.668-.552.667-.552.667-.553.667-.552.667-.552.667-.553.667-.552.667-.552.667-.553.667-.552.668-.552.667-.553.667-.552.667-.552.667-.553.667-.552.667-.553.667-.552.667-.552.667-.553.668-.552.667-.552.667-.553.667-.552.667-.552.667-.553.667-.552.667-.553.668-.552.667-.552.667-.553.667-.552.667-.552.667-.553.667-.552.667-.553.668-.552.667-.552.667-.553.667-.552.667-.553.667-.552.667-.552.668-.553.667-.552.667-.552.667-.553.667-.552.667-.553.667-.552.668-.552.667-.553.667-.552.667-.553.667-.552.667-.553.668-.552.667-.552.667-.553.667-.552.667-.553.668-.552.667-.552.667-.553.667-.552.667-.553.667-.552.668-.553.667-.552.667-.552.667-.553.668-.552.667-.553.667-.552.667-.553.667-.552.668-.553.667-.552.667-.552.667-.553.667-.552.668-.553.667-.552.667-.553.667-.552.668-.553.667-.552.667-.553.667-.552.668-.553.667-.552.667-.553.667-.552.668-.553.667-.552.667-.552.667-.553.668-.552.667-.553.667-.552.668-.553.667-.552.667-.553.667-.552.668-.553.667-.553.667-.552.668-.553.667-.552.667-.553.668-.552.667-.553.667-.552.667-.553.668-.552.667-.553.667-.552.668-.553.667-.552.667-.553.668-.553.667-.552.667-.553.668-.552.667-.553.667-.552.668-.553.667-.552.668-.553.667-.553.667-.552.668-.553.667-.552.667-.553.668-.553.667-.552.668-.553.667-.552.667-.553.668-.553.667-.552.668-.553.667-.552.668-.553.667-.553.667-.552.668-.553.667-.553.668-.552.667-.553.668-.552.667-.553.667-.553.668-.552.667-.553.668-.553.667-.552.668-.553.667-.553.668-.552.667-.553.668-.553.667-.552.668-.553.667-.553.668-.552.667-.553.668-.553.667-.552.668-.553.667-.553.668-.553.667-.552.668-.553.668-.553.667-.552.668-.553.667-.553.668-.553.667-.552.668-.553.667-.553.668-.553.668-.552.667-.553.668-.553.667-.553.668-.552.668-.553.667-.553.668-.553.667-.553.668-.552.668-.553.667-.553.668-.553.668-.553.667-.552.668-.553.668-.553.667-.553.668-.553.668-.552.667-.553.668-.553.668-.553.667-.553c33.212-27.499 82.201-22.908 109.671 10.269 27.471 33.177 22.842 82.163-10.37 109.661l-.214.178L468.772 709.25c-16.71 13.837-25.922 32.386-26.117 54.013v.019l-3.33 154.205-.001.01c-.551 19.816-8.77 36.945-24.158 49.687l-41.983 34.766c-33.211 27.49-82.201 22.9-109.671-10.273-27.47-33.177-22.842-82.163 10.37-109.662l114.167-94.53c16.735-13.856 25.743-32.627 26.117-54.005l3.331-154.25z" stroke="url(#p)" stroke-width="6"/><g style="mix-blend-mode:multiply" opacity=".2"><path d="M752.802 807.141c-27.114 22.451-67.119 18.704-89.549-8.386-22.43-27.089-18.648-67.091 8.466-89.541l189.293-156.733 18.188-15.059c12.631-10.459 19.398-24.57 19.68-40.686l2.619-121.286c.311-16.424 7.049-30.228 19.849-40.825l562.222-473.807c27.11-22.45 67.12-18.704 89.55 8.386 22.43 27.09 18.64 67.091-8.47 89.541l-509.34 430.022-59.111 48.944-50.354 41.693c-12.631 10.459-19.538 24.402-19.849 40.825l-2.48 121.455c-.311 16.424-7.049 30.227-19.679 40.686L752.941 807.31l-.139-.169zM870.074 33.056l444.496-376.337c27.12-22.45 67.12-18.704 89.55 8.386 22.43 27.09 18.65 67.091-8.46 89.541L894.571 177.835c-12.631 10.458-19.398 24.57-19.848 40.825l-2.62 121.287c-.311 16.423-7.217 30.366-19.848 40.825l-268.614 222.41c-27.114 22.45-67.118 18.704-89.549-8.386-22.43-27.09-18.648-67.091 8.466-89.542l.169-.139 325.2-269.262c12.63-10.459 19.397-24.57 19.679-40.686l2.62-121.287c.45-16.255 7.217-30.366 19.848-40.824zm84.45 950.517l-33.008 27.327c-27.114 22.45-67.119 18.71-89.549-8.38-22.43-27.092-18.648-67.093 8.466-89.543l89.762-74.323c12.631-10.458 19.398-24.569 19.68-40.685l2.619-121.287c.311-16.423 7.049-30.227 19.849-40.825 89.597-74.183 590.507-497.233 680.107-571.416 27.11-22.45 67.12-18.704 89.55 8.386 22.43 27.09 18.65 67.091-8.47 89.541l-.17.14-736.689 618.268c-12.63 10.459-19.537 24.402-19.679 40.686l-2.62 121.286c-.45 16.256-7.217 30.367-19.848 40.825z" fill="#0672DD"/><path d="M752.802 807.141c-27.114 22.451-67.119 18.704-89.549-8.386-22.43-27.089-18.648-67.091 8.466-89.541l189.293-156.733 18.188-15.059c12.631-10.459 19.398-24.57 19.68-40.686l2.619-121.286c.311-16.424 7.049-30.228 19.849-40.825l562.222-473.807c27.11-22.45 67.12-18.704 89.55 8.386 22.43 27.09 18.64 67.091-8.47 89.541l-509.34 430.022-59.111 48.944-50.354 41.693c-12.631 10.459-19.538 24.402-19.849 40.825l-2.48 121.455c-.311 16.424-7.049 30.227-19.679 40.686L752.941 807.31l-.139-.169zM870.074 33.056l444.496-376.337c27.12-22.45 67.12-18.704 89.55 8.386 22.43 27.09 18.65 67.091-8.46 89.541L894.571 177.835c-12.631 10.458-19.398 24.57-19.848 40.825l-2.62 121.287c-.311 16.423-7.217 30.366-19.848 40.825l-268.614 222.41c-27.114 22.45-67.118 18.704-89.549-8.386-22.43-27.09-18.648-67.091 8.466-89.542l.169-.139 325.2-269.262c12.63-10.459 19.397-24.57 19.679-40.686l2.62-121.287c.45-16.255 7.217-30.366 19.848-40.824zm84.45 950.517l-33.008 27.327c-27.114 22.45-67.119 18.71-89.549-8.38-22.43-27.092-18.648-67.093 8.466-89.543l89.762-74.323c12.631-10.458 19.398-24.569 19.68-40.685l2.619-121.287c.311-16.423 7.049-30.227 19.849-40.825 89.597-74.183 590.507-497.233 680.107-571.416 27.11-22.45 67.12-18.704 89.55 8.386 22.43 27.09 18.65 67.091-8.47 89.541l-.17.14-736.689 618.268c-12.63 10.459-19.537 24.402-19.679 40.686l-2.62 121.286c-.45 16.256-7.217 30.367-19.848 40.825z" fill="#0B9CC7"/></g></g><defs><linearGradient id="a" x1="15.606" y1="397" x2="1159.78" y2="-118.199" gradientUnits="userSpaceOnUse"><stop stop-color="#1E77C2"/><stop offset="1" stop-color="#00A5D7"/></linearGradient><linearGradient id="b" x1="15.606" y1="397" x2="1159.78" y2="-118.199" gradientUnits="userSpaceOnUse"><stop stop-color="#30FFC2"/><stop offset="1" stop-color="#20A4E6"/></linearGradient><linearGradient id="d" x1="3248.42" y1="-1818.24" x2="822.203" y2="1833.53" gradientUnits="userSpaceOnUse"><stop stop-color="#326BFF"/><stop offset="1" stop-color="#13E3FF"/></linearGradient><linearGradient id="e" x1="3297.87" y1="-1586.16" x2="871.653" y2="2065.6" gradientUnits="userSpaceOnUse"><stop stop-color="#326BFF"/><stop offset="1" stop-color="#13E3FF"/></linearGradient><linearGradient id="f" x1="3357.68" y1="-1356.48" x2="931.461" y2="2295.28" gradientUnits="userSpaceOnUse"><stop stop-color="#326BFF"/><stop offset="1" stop-color="#13E3FF"/></linearGradient><linearGradient id="g" y1="524" x2="1066.19" y2="-301.234" gradientUnits="userSpaceOnUse"><stop stop-color="#0D3575"/><stop offset="1" stop-color="#00D2ED"/></linearGradient><linearGradient id="h" y1="684.592" x2="920.45" y2="-575.402" gradientUnits="userSpaceOnUse"><stop stop-color="#326BFF"/><stop offset="1" stop-color="#05FF00"/></linearGradient><linearGradient id="j" x1="443.092" y1="715.226" x2="1658.81" y2="-291.381" gradientUnits="userSpaceOnUse"><stop stop-color="#0694CE"/><stop offset="1" stop-color="#0694CE" stop-opacity="0"/></linearGradient><linearGradient id="k" x1="463.31" y1="993.319" x2="1679.03" y2="-13.287" gradientUnits="userSpaceOnUse"><stop stop-color="#0694CE"/><stop offset="1" stop-color="#0694CE" stop-opacity="0"/></linearGradient><linearGradient id="l" x1="480.092" y1="1275.23" x2="1695.81" y2="268.619" gradientUnits="userSpaceOnUse"><stop stop-color="#0694CE"/><stop offset="1" stop-color="#0694CE" stop-opacity="0"/></linearGradient><linearGradient id="m" x1="106" y1="405" x2="1320.09" y2="-192.925" gradientUnits="userSpaceOnUse"><stop offset=".536" stop-color="#0B81C2"/><stop offset="1" stop-color="#03A6DA"/></linearGradient><linearGradient id="n" y1="684.592" x2="920.45" y2="-575.402" gradientUnits="userSpaceOnUse"><stop stop-color="#326BFF"/><stop offset="1" stop-color="#05FF00"/></linearGradient><linearGradient id="p" x1="83" y1="262" x2="889" y2="58" gradientUnits="userSpaceOnUse"><stop stop-color="#178BD3"/><stop offset="1" stop-color="#0094FF" stop-opacity="0"/></linearGradient></defs></svg>