<svg width="1440" height="760" viewBox="0 0 1440 760" fill="none" xmlns="http://www.w3.org/2000/svg"><path d="M0 0h1440v760H0V0z" fill="#003177"/><path fill="url(#a)" fill-opacity=".7" d="M2 363h1438v397H2z"/><g clip-path="url(#b)"><path opacity=".6" d="M1022.06 549.898l.19.14 124.72-173.469c10.27-14.278 13.62-30.36 9.74-47.434v-.003l-29.27-129.521-105.38 350.287zm0 0l-.87 1.218m.87-1.218l-.87 1.218m0 0c-22.102 30.736-64.144 37.757-94.106 15.793-29.963-21.965-36.373-64.504-14.274-95.24l157.55-219.138 15.14-21.056c10.76-14.966 14.26-32.267 10.23-49.87m-74.54 369.511l74.54-369.511m-29.08-129.388l.01.003 29.07 129.379v.006m-29.08-129.388l27.62 129.717 1.46-.329m-29.08-129.388c-3.88-17.072-.53-33.154 9.88-47.63m-9.88 47.63l9.88-47.63m-82.029-110.539l-.002-.009c-3.884-17.788-.394-35.086 10.371-50.056l74.57-103.72c22.1-30.736 15.69-73.276-14.27-95.24-29.97-21.964-72.009-14.943-94.107 15.793l-27.474 38.212c-10.262 14.273-13.572 30.691-9.873 47.638l.001.005 29.07 129.369.002.006m31.712 18.002l-33.169-17.673 1.457-.329m31.712 18.002l29.069 129.385.01.003c3.88 17.069.39 33.346-9.88 47.63-37.257 51.821-103.608 134.835-170.001 217.901l-.027.034c-66.36 83.024-132.758 166.097-170.066 217.988-22.099 30.737-64.141 37.757-94.103 15.793-15.404-11.292-28.634-21.265-35.311-32.223-3.3-5.418-4.955-11.016-4.485-17.105.472-6.11 3.095-12.87 8.63-20.567l.015-.022.015-.022 17.003-25.496 387.161-501.39.016-.02.015-.02c10.76-14.966 14.256-32.268 10.227-49.871m31.712 18.002l-31.712-18.002M1076.53 4.586l125.45-174.49M1076.53 4.586l125.45-174.49m0 0c22.1-30.736 64.14-37.757 94.11-15.793m-94.11 15.793l94.11-15.793m0 0c29.96 21.964 36.37 64.504 14.27 95.24m-14.27-95.24l14.27 95.24m0 0l-81.44 113.273m81.44-113.273l-81.44 113.273m0 0l-49.2 68.432m49.2-68.432l-49.2 68.432m0 0l-41.91 58.293m41.91-58.293l-41.91 58.293m0 0c-10.76 14.96-14.45 32.121-10.37 50.068l10.37-50.068zm61.4 207.959v-.004c-3.88-17.071-.53-33.153 9.88-47.63l.44-.607.43-.608.44-.608.44-.608.43-.607.44-.608.44-.608.43-.607.44-.608.44-.608.43-.608.44-.607.44-.608.44-.608.43-.607.44-.608.44-.608.43-.607.44-.608.44-.608.43-.607.44-.608.44-.607.43-.608.44-.608.44-.607.43-.608.44-.608.44-.607.44-.608.43-.607.44-.608.44-.608.43-.607.44-.608.44-.607.43-.608.44-.608.44-.607.43-.608.44-.607.44-.608.43-.607.44-.608.44-.608.43-.607.44-.608.44-.607.44-.608.43-.607.44-.608.44-.607.43-.608.44-.607.44-.608.43-.607.44-.608.44-.607.43-.608.44-.607.44-.608.43-.607.44-.608.44-.607.43-.608.44-.607.44-.608.43-.607.44-.608.44-.607.43-.608.44-.607.44-.608.43-.607.44-.607.44-.608.43-.607.44-.608.44-.607.43-.608.44-.607.44-.607.44-.608.43-.607.44-.608.44-.607.43-.608.44-.607.44-.607.43-.608.44-.607.44-.608.43-.607.44-.607.44-.608.43-.607.44-.608.44-.607.43-.607.44-.608.44-.607.43-.607.44-.608.44-.607.43-.608.44-.607.44-.607.43-.608.44-.607.44-.607.43-.608.44-.607.44-.607.43-.608.44-.607.44-.607.43-.608.44-.607.44-.607.43-.608.44-.607.44-.607.43-.608.44-.607.44-.607.43-.608.44-.607.44-.607.43-.608.44-.607.44-.607.43-.607.44-.608.44-.607.43-.607.44-.608.44-.607.43-.607.44-.607.43-.608.44-.607.44-.607.43-.608.44-.607.44-.607.43-.607.44-.608.44-.607.43-.607.44-.607.44-.608.43-.607.44-.607.44-.607.43-.608.44-.607.44-.607.43-.607.44-.608.44-.607.43-.607.44-.607.44-.608.43-.607.44-.607.44-.607.43-.608.44-.607.44-.607.43-.607.44-.607.44-.608.43-.607.44-.607.44-.607.43-.608.44-.607.44-.607.43-.607.44-.607.44-.608.43-.607.44-.607.43-.607.44-.607.44-.608.43-.607.44-.607.44-.607.43-.608.44-.607.44-.607.43-.607.44-.607.44-.607.43-.608.44-.607.44-.607.43-.607.44-.607.44-.608.43-.607.44-.607.44-.607.43-.607.44-.608.44-.607.43-.607.44-.607.44-.607.43-.607.44-.608.43-.607.44-.607.44-.607.43-.607.44-.608.44-.607.43-.607.44-.607.44-.607.43-.607.44-.608.44-.607.43-.607.44-.607.44-.607.43-.607.44-.608.44-.607.43-.607.44-.607.44-.607.43-.607.44-.608.44-.607.43-.607.44-.607.43-.607.44-.607.44-.608.43-.607.44-.607.44-.607.43-.607.44-.607.44-.608.43-.607.44-.607.44-.607.43-.607.44-.607.44-.608.43-.607.44-.607.44-.607.43-.607.44-.607.44-.608.43-.607.44-.607.43-.607.44-.607.44-.607.43-.607.44-.608.44-.607.43-.607.44-.607.44-.607.43-.607.44-.608.44-.607.43-.607.44-.607.44-.607.43-.607.44-.608.44-.607.43-.607.44-.607.44-.607.43-.607.44-.608.44-.607.43-.607.44-.607.43-.607.44-.607.44-.608.43-.607.44-.607.44-.607.43-.607.44-.608.44-.607.43-.607.44-.607.44-.607.43-.607.44-.608.44-.607.43-.607.44-.607.44-.607.43-.608.44-.607.44-.607.43-.607.44-.607.44-.607.43-.608.44-.607.44-.607.43-.607.44-.607.43-.608.44-.607.44-.607.43-.607.44-.607.44-.608.43-.607.44-.607.44-.607.43-.607.44-.608.44-.607.43-.607.44-.607.44-.607.43-.608.44-.607.44-.607.43-.607.44-.608.44-.607.43-.607.44-.607.44-.607.43-.608.44-.607.44-.607.43-.607.44-.608.44-.607.43-.607.44-.607.43-.607.44-.608.44-.607.43-.607.44-.607.44-.608.43-.607.44-.607.44-.607.43-.608.44-.607.44-.607.43-.607.44-.608.44-.607.43-.607.44-.608.44-.607.43-.607.44-.607.44-.608.43-.607.44-.607.44-.607.43-.608.44-.607.44-.607.43-.608.44-.607.44-.607.43-.607.44-.608.44-.607.43-.607.44-.608.44-.607.43-.607.44-.608.44-.607.43-.607.44-.608.44-.607.43-.607.44-.607.44-.608.43-.607.44-.607.44-.608.43-.607.44-.607.44-.608.43-.607.44-.607.44-.608.43-.607.44-.608.44-.607.43-.607.44-.607.44-.608.43-.607.44-.608.44-.607.43-.607.44-.608.44-.607.43-.608.44-.607.44-.607.43-.608.44-.607.44-.608.43-.607.44-.607.44-.608.43-.607.44-.607.44-.608.43-.607.44-.608.44-.607.43-.608.44-.607.44-.607.43-.608.44-.607.44-.608.43-.607.44-.608.44-.607.43-.608.44-.607.44-.608.43-.607.44-.607.44-.608.43-.607.44-.608.44-.607.43-.608.44-.607.44-.608.43-.607.44-.608.44-.607.44-.608.43-.607.44-.608.44-.607.43-.608.44-.607.44-.608.43-.607.44-.608.44-.607.43-.608.44-.608.44-.607.43-.608.44-.607.44-.608.43-.607.44-.608.44-.607.43-.608.44-.608.44-.607.44-.608.43-.607.44-.608.44-.607.43-.608.44-.608.44-.607.43-.608.44-.608.44-.607.43-.608.44-.607.44-.608.43-.608.44-.607.44-.608.43-.608.44-.607.44-.608.44-.607.43-.608.44-.608.44-.608.43-.607.44-.608.44-.608.43-.607.44-.608.44-.608.43-.607.44-.608.44-.608.44-.607.43-.608.44-.608.44-.608.43-.607c22.1-30.736 64.14-37.757 94.11-15.793 29.96 21.964 36.37 64.504 14.27 95.24l-.14.195-270.67 376.472c-10.76 14.955-14.45 32.119-10.23 49.88v.009l29.07 129.357v.003c3.7 16.948.39 33.366-9.87 47.639l-27.47 38.213c-22.1 30.736-64.14 37.757-94.11 15.792-29.96-21.964-36.37-64.503-14.27-95.239l74.71-103.915c10.76-14.968 14.26-32.272 10.23-49.877L1199.21 357.5z" stroke="url(#c)" stroke-width="3"/></g><defs><linearGradient id="a" x1="721" y1="363" x2="721" y2="760" gradientUnits="userSpaceOnUse"><stop stop-color="#0C2452" stop-opacity="0"/><stop offset=".484" stop-color="#072857"/></linearGradient><linearGradient id="c" x1="1145.63" y1="614.5" x2="1496.35" y2="-174.589" gradientUnits="userSpaceOnUse"><stop stop-color="#052B62"/><stop offset=".424" stop-color="#1C5FBE"/><stop offset="1" stop-color="#032E6D"/></linearGradient><clipPath id="b"><path fill="#fff" transform="translate(418)" d="M0 0h1022v760H0z"/></clipPath></defs></svg>