<svg width="374" height="196" viewBox="0 0 374 196" fill="none" xmlns="http://www.w3.org/2000/svg">
<g clip-path="url(#clip0)">
<rect width="374" height="196" rx="3" fill="url(#paint0_linear)" fill-opacity="0.6"/>
<path d="M214.35 71.884L374 -31V238L213.991 132.171C192.317 117.836 192.506 85.9606 214.35 71.884Z" fill="#FF906E" fill-opacity="0.7"/>
<path d="M231.538 76.912V91.096H239.674V94H228.298V76.912H231.538ZM252.485 94H249.461C249.317 93.744 249.205 93.24 249.125 92.488C248.293 93.688 246.965 94.288 245.141 94.288C243.781 94.288 242.693 93.96 241.877 93.304C241.077 92.648 240.677 91.736 240.677 90.568C240.677 88.312 242.261 87.024 245.429 86.704L247.301 86.536C247.925 86.456 248.373 86.312 248.645 86.104C248.917 85.88 249.053 85.552 249.053 85.12C249.053 84.592 248.877 84.208 248.525 83.968C248.189 83.712 247.613 83.584 246.797 83.584C245.917 83.584 245.285 83.736 244.901 84.04C244.517 84.328 244.293 84.832 244.229 85.552H241.253C241.429 82.736 243.285 81.328 246.821 81.328C250.261 81.328 251.981 82.568 251.981 85.048V91.648C251.981 92.736 252.149 93.52 252.485 94ZM245.861 92.128C246.805 92.128 247.573 91.872 248.165 91.36C248.757 90.832 249.053 90.08 249.053 89.104V87.976C248.765 88.232 248.293 88.4 247.637 88.48L246.005 88.672C245.205 88.768 244.629 88.96 244.277 89.248C243.941 89.52 243.773 89.92 243.773 90.448C243.773 90.976 243.949 91.392 244.301 91.696C244.669 91.984 245.189 92.128 245.861 92.128ZM262.352 88.552V81.616H265.376V94H262.448V92.2C261.504 93.592 260.208 94.288 258.56 94.288C257.232 94.288 256.176 93.904 255.392 93.136C254.624 92.352 254.24 91.248 254.24 89.824V81.616H257.264V89.32C257.264 90.888 258.04 91.672 259.592 91.672C260.36 91.672 261.008 91.4 261.536 90.856C262.08 90.296 262.352 89.528 262.352 88.552ZM274.625 81.328C275.969 81.328 277.025 81.72 277.793 82.504C278.577 83.272 278.969 84.368 278.969 85.792V94H275.945V86.296C275.945 84.728 275.169 83.944 273.617 83.944C272.849 83.944 272.193 84.224 271.649 84.784C271.121 85.328 270.857 86.088 270.857 87.064V94H267.833V81.616H270.761V83.392C271.705 82.016 272.993 81.328 274.625 81.328ZM286.995 94.288C285.171 94.288 283.691 93.696 282.555 92.512C281.435 91.344 280.875 89.776 280.875 87.808C280.875 85.824 281.435 84.248 282.555 83.08C283.659 81.912 285.139 81.328 286.995 81.328C288.611 81.328 289.931 81.76 290.955 82.624C291.979 83.472 292.579 84.624 292.755 86.08H289.731C289.587 85.36 289.275 84.808 288.795 84.424C288.315 84.04 287.715 83.848 286.995 83.848C286.051 83.848 285.307 84.192 284.763 84.88C284.235 85.552 283.971 86.528 283.971 87.808C283.971 89.088 284.243 90.072 284.787 90.76C285.331 91.432 286.067 91.768 286.995 91.768C287.731 91.768 288.347 91.568 288.843 91.168C289.355 90.752 289.667 90.16 289.779 89.392H292.803C292.643 90.88 292.035 92.072 290.979 92.968C289.923 93.848 288.595 94.288 286.995 94.288ZM301.25 81.328C302.594 81.328 303.65 81.72 304.418 82.504C305.202 83.272 305.594 84.368 305.594 85.792V94H302.57V86.296C302.57 84.728 301.794 83.944 300.242 83.944C299.474 83.944 298.818 84.224 298.274 84.784C297.746 85.328 297.482 86.088 297.482 87.064V94H294.458V76.912H297.482V83.272C298.426 81.976 299.682 81.328 301.25 81.328ZM327.128 86.248L328.52 81.616H331.76L327.68 94H324.512L322.952 88.912C322.36 86.832 322.008 85.6 321.896 85.216C321.848 85.392 321.504 86.624 320.864 88.912L319.328 94H316.16L312.08 81.616H315.32L316.712 86.248C317.064 87.352 317.472 88.784 317.936 90.544C318.384 88.768 318.776 87.328 319.112 86.224L320.48 81.616H323.36L324.728 86.224C325.064 87.328 325.456 88.768 325.904 90.544C326.32 88.96 326.728 87.528 327.128 86.248ZM335.943 80.008H332.967V77.176H335.943V80.008ZM335.967 94H332.943V81.616H335.967V94ZM344.86 81.616V83.92H342.412V90.616C342.412 91.016 342.516 91.296 342.724 91.456C342.948 91.616 343.316 91.696 343.828 91.696H344.86V94C344.204 94.064 343.676 94.096 343.276 94.096C341.932 94.096 340.948 93.848 340.324 93.352C339.716 92.84 339.412 92.032 339.412 90.928V83.92H337.492V81.616H339.412V78.016H342.412V81.616H344.86ZM353.422 81.328C354.766 81.328 355.822 81.72 356.59 82.504C357.374 83.272 357.766 84.368 357.766 85.792V94H354.742V86.296C354.742 84.728 353.966 83.944 352.414 83.944C351.646 83.944 350.99 84.224 350.446 84.784C349.918 85.328 349.654 86.088 349.654 87.064V94H346.63V76.912H349.654V83.272C350.598 81.976 351.854 81.328 353.422 81.328ZM287.081 107.912V110.816H278.249V114.848H286.289V117.632H278.249V125H275.009V107.912H287.081ZM296.477 119.552V112.616H299.501V125H296.573V123.2C295.629 124.592 294.333 125.288 292.685 125.288C291.357 125.288 290.301 124.904 289.517 124.136C288.749 123.352 288.365 122.248 288.365 120.824V112.616H291.389V120.32C291.389 121.888 292.165 122.672 293.717 122.672C294.485 122.672 295.133 122.4 295.661 121.856C296.205 121.296 296.477 120.528 296.477 119.552ZM308.75 112.328C310.094 112.328 311.15 112.72 311.918 113.504C312.702 114.272 313.094 115.368 313.094 116.792V125H310.07V117.296C310.07 115.728 309.294 114.944 307.742 114.944C306.974 114.944 306.318 115.224 305.774 115.784C305.246 116.328 304.982 117.088 304.982 118.064V125H301.958V112.616H304.886V114.392C305.83 113.016 307.118 112.328 308.75 112.328ZM322.344 112.328C323.688 112.328 324.744 112.72 325.512 113.504C326.296 114.272 326.688 115.368 326.688 116.792V125H323.664V117.296C323.664 115.728 322.888 114.944 321.336 114.944C320.568 114.944 319.912 115.224 319.368 115.784C318.84 116.328 318.576 117.088 318.576 118.064V125H315.552V112.616H318.48V114.392C319.424 113.016 320.712 112.328 322.344 112.328ZM340.834 119.024V119.744H331.57C331.682 120.8 332.01 121.6 332.554 122.144C333.114 122.672 333.858 122.936 334.786 122.936C336.162 122.936 337.106 122.344 337.618 121.16H340.522C340.202 122.424 339.53 123.432 338.506 124.184C337.482 124.92 336.234 125.288 334.762 125.288C332.922 125.288 331.434 124.696 330.298 123.512C329.162 122.328 328.594 120.76 328.594 118.808C328.594 116.856 329.154 115.288 330.274 114.104C331.41 112.92 332.89 112.328 334.714 112.328C336.586 112.328 338.074 112.944 339.178 114.176C340.282 115.408 340.834 117.024 340.834 119.024ZM334.69 114.68C332.914 114.68 331.882 115.664 331.594 117.632H337.81C337.682 116.72 337.346 116 336.802 115.472C336.258 114.944 335.554 114.68 334.69 114.68ZM345.811 125H342.787V107.912H345.811V125ZM353.119 125.336C349.503 125.336 347.615 123.912 347.455 121.064H350.407C350.487 121.832 350.735 122.376 351.151 122.696C351.583 123.016 352.255 123.176 353.167 123.176C354.799 123.176 355.615 122.68 355.615 121.688C355.615 121.24 355.439 120.896 355.087 120.656C354.735 120.416 354.103 120.216 353.191 120.056L351.775 119.816C349.071 119.368 347.719 118.12 347.719 116.072C347.719 114.904 348.167 113.992 349.063 113.336C349.959 112.664 351.223 112.328 352.855 112.328C356.391 112.328 358.215 113.728 358.327 116.528H355.471C355.439 115.792 355.207 115.272 354.775 114.968C354.343 114.648 353.703 114.488 352.855 114.488C351.415 114.488 350.695 114.968 350.695 115.928C350.695 116.344 350.855 116.672 351.175 116.912C351.495 117.136 352.023 117.312 352.759 117.44L354.319 117.68C355.823 117.952 356.911 118.384 357.583 118.976C358.271 119.568 358.615 120.392 358.615 121.448C358.615 122.696 358.135 123.656 357.175 124.328C356.215 125 354.863 125.336 353.119 125.336Z" fill="white"/>
</g>
<defs>
<linearGradient id="paint0_linear" x1="46.3692" y1="115.313" x2="369.875" y2="196.338" gradientUnits="userSpaceOnUse">
<stop stop-color="#D853AB" stop-opacity="0.6"/>
<stop offset="0.442708" stop-color="#DC5EA6"/>
<stop offset="0.890625" stop-color="#FF9900"/>
</linearGradient>
<clipPath id="clip0">
<rect width="374" height="196" rx="3" fill="white"/>
</clipPath>
</defs>
</svg>
