<svg width="1440" height="500" viewBox="0 0 1440 500" fill="none" xmlns="http://www.w3.org/2000/svg">
<rect width="1440" height="500" fill="#4B6782"/>
<rect width="1440" height="500" fill="url(#paint0_linear)"/>
<g opacity="0.21">
<mask id="mask0" mask-type="alpha" maskUnits="userSpaceOnUse" x="0" y="0" width="1440" height="500">
<rect width="1440" height="500" fill="#4B6782"/>
<rect width="1440" height="500" fill="url(#paint1_linear)"/>
</mask>
<g mask="url(#mask0)">
<g style="mix-blend-mode:multiply">
<path d="M848.409 5.20099L1349.24 -365.609C1370.86 -383.513 1402.77 -380.526 1420.66 -358.921C1438.54 -337.317 1435.53 -305.416 1413.9 -287.512L867.945 120.663C857.872 129.004 852.475 140.258 852.116 153.221L850.027 249.948C849.779 263.046 844.271 274.165 834.198 282.506C762.747 341.667 451.726 588.509 380.274 647.67C358.651 665.574 326.747 662.586 308.859 640.982C290.971 619.378 293.987 587.477 315.611 569.573L814.796 166.932C824.869 158.592 830.266 147.338 830.491 134.486L832.58 37.7592C832.939 24.7956 838.336 13.5414 848.409 5.20099Z" fill="#00B2FF"/>
<path d="M848.409 5.20099L1349.24 -365.609C1370.86 -383.513 1402.77 -380.526 1420.66 -358.921C1438.54 -337.317 1435.53 -305.416 1413.9 -287.512L867.945 120.663C857.872 129.004 852.475 140.258 852.116 153.221L850.027 249.948C849.779 263.046 844.271 274.165 834.198 282.506C762.747 341.667 451.726 588.509 380.274 647.67C358.651 665.574 326.747 662.586 308.859 640.982C290.971 619.378 293.987 587.477 315.611 569.573L814.796 166.932C824.869 158.592 830.266 147.338 830.491 134.486L832.58 37.7592C832.939 24.7956 838.336 13.5414 848.409 5.20099Z" fill="url(#paint2_linear)" fill-opacity="0.4"/>
</g>
<g style="mix-blend-mode:multiply">
<path d="M897.858 237.275L1398.69 -133.535C1420.31 -151.439 1452.22 -148.451 1470.11 -126.847C1487.99 -105.243 1484.98 -73.3418 1463.35 -55.4378L917.394 352.738C907.321 361.078 901.924 372.332 901.565 385.296L899.476 482.022C899.228 495.12 893.72 506.239 883.647 514.58C812.196 573.741 501.175 820.583 429.724 879.744C408.1 897.648 376.196 894.661 358.308 873.056C340.42 851.452 343.436 819.551 365.06 801.647L864.245 399.007C874.318 390.666 879.715 379.412 879.94 366.56L882.029 269.833C882.388 256.87 887.785 245.616 897.858 237.275Z" fill="#00B2FF"/>
<path d="M897.858 237.275L1398.69 -133.535C1420.31 -151.439 1452.22 -148.451 1470.11 -126.847C1487.99 -105.243 1484.98 -73.3418 1463.35 -55.4378L917.394 352.738C907.321 361.078 901.924 372.332 901.565 385.296L899.476 482.022C899.228 495.12 893.72 506.239 883.647 514.58C812.196 573.741 501.175 820.583 429.724 879.744C408.1 897.648 376.196 894.661 358.308 873.056C340.42 851.452 343.436 819.551 365.06 801.647L864.245 399.007C874.318 390.666 879.715 379.412 879.94 366.56L882.029 269.833C882.388 256.87 887.785 245.616 897.858 237.275Z" fill="url(#paint3_linear)" fill-opacity="0.4"/>
</g>
<g style="mix-blend-mode:multiply">
<path d="M957.667 466.955L1458.5 96.1446C1480.12 78.2406 1512.03 81.2283 1529.91 102.833C1547.8 124.437 1544.79 156.338 1523.16 174.242L977.203 582.417C967.13 590.758 961.733 602.012 961.374 614.975L959.285 711.702C959.037 724.799 953.529 735.919 943.456 744.26C872.004 803.421 560.984 1050.26 489.532 1109.42C467.909 1127.33 436.005 1124.34 418.117 1102.74C400.229 1081.13 403.245 1049.23 424.868 1031.33L924.054 628.686C934.127 620.346 939.524 609.092 939.748 596.239L941.837 499.513C942.197 486.549 947.594 475.295 957.667 466.955Z" fill="#00B2FF"/>
<path d="M957.667 466.955L1458.5 96.1446C1480.12 78.2406 1512.03 81.2283 1529.91 102.833C1547.8 124.437 1544.79 156.338 1523.16 174.242L977.203 582.417C967.13 590.758 961.733 602.012 961.374 614.975L959.285 711.702C959.037 724.799 953.529 735.919 943.456 744.26C872.004 803.421 560.984 1050.26 489.532 1109.42C467.909 1127.33 436.005 1124.34 418.117 1102.74C400.229 1081.13 403.245 1049.23 424.868 1031.33L924.054 628.686C934.127 620.346 939.524 609.092 939.748 596.239L941.837 499.513C942.197 486.549 947.594 475.295 957.667 466.955Z" fill="url(#paint4_linear)" fill-opacity="0.4"/>
</g>
</g>
</g>
<rect width="1440" height="500" fill="url(#paint5_linear)"/>
<mask id="mask1" mask-type="alpha" maskUnits="userSpaceOnUse" x="0" y="0" width="1440" height="500">
<rect width="1440" height="500" fill="url(#paint6_linear)"/>
</mask>
<g mask="url(#mask1)">
<g style="mix-blend-mode:multiply" opacity="0.13">
<path d="M899.884 -92.7246L1428.81 -484.336C1451.65 -503.244 1485.34 -500.089 1504.23 -477.273C1523.12 -454.457 1519.94 -420.766 1497.1 -401.858L920.516 29.2148C909.878 38.0231 904.178 49.9084 903.799 63.5991L901.593 165.751C901.331 179.584 895.514 191.327 884.876 200.136C809.416 262.616 480.949 523.304 405.489 585.784C382.652 604.693 348.959 601.537 330.067 578.721C311.176 555.905 314.361 522.215 337.198 503.306L864.385 78.0792C875.024 69.2709 880.723 57.3856 880.96 43.8123L883.167 -58.3401C883.546 -72.0309 889.246 -83.9164 899.884 -92.7246Z" fill="url(#paint7_linear)" style="mix-blend-mode:multiply"/>
<path d="M899.884 -92.7246L1428.81 -484.336C1451.65 -503.244 1485.34 -500.089 1504.23 -477.273C1523.12 -454.457 1519.94 -420.766 1497.1 -401.858L920.516 29.2148C909.878 38.0231 904.178 49.9084 903.799 63.5991L901.593 165.751C901.331 179.584 895.514 191.327 884.876 200.136C809.416 262.616 480.949 523.304 405.489 585.784C382.652 604.693 348.959 601.537 330.067 578.721C311.176 555.905 314.361 522.215 337.198 503.306L864.385 78.0792C875.024 69.2709 880.723 57.3856 880.96 43.8123L883.167 -58.3401C883.546 -72.0309 889.246 -83.9164 899.884 -92.7246Z" fill="#0784B2"/>
</g>
<g style="mix-blend-mode:multiply" opacity="0.13">
<path d="M920.103 185.369L1449.03 -206.242C1471.87 -225.151 1505.56 -221.995 1524.45 -199.179C1543.34 -176.363 1540.16 -142.672 1517.32 -123.764L940.735 307.309C930.097 316.117 924.397 328.002 924.018 341.693L921.812 443.845C921.55 457.678 915.733 469.421 905.095 478.23C829.635 540.71 501.167 801.398 425.708 863.878C402.871 882.786 369.178 879.631 350.286 856.815C331.395 833.999 334.58 800.308 357.417 781.4L884.604 356.173C895.242 347.365 900.942 335.479 901.179 321.906L903.385 219.754C903.765 206.063 909.464 194.177 920.103 185.369Z" fill="url(#paint8_linear)" style="mix-blend-mode:multiply"/>
<path d="M920.103 185.369L1449.03 -206.242C1471.87 -225.151 1505.56 -221.995 1524.45 -199.179C1543.34 -176.363 1540.16 -142.672 1517.32 -123.764L940.735 307.309C930.097 316.117 924.397 328.002 924.018 341.693L921.812 443.845C921.55 457.678 915.733 469.421 905.095 478.23C829.635 540.71 501.167 801.398 425.708 863.878C402.871 882.786 369.178 879.631 350.286 856.815C331.395 833.999 334.58 800.308 357.417 781.4L884.604 356.173C895.242 347.365 900.942 335.479 901.179 321.906L903.385 219.754C903.765 206.063 909.464 194.177 920.103 185.369Z" fill="#0784B2"/>
</g>
<g style="mix-blend-mode:multiply" opacity="0.13">
<path d="M936.884 467.275L1465.81 75.6641C1488.65 56.7557 1522.34 59.911 1541.23 82.7271C1560.12 105.543 1556.94 139.234 1534.1 158.142L957.516 589.215C946.878 598.023 941.178 609.908 940.799 623.599L938.593 725.751C938.331 739.584 932.514 751.327 921.876 760.136C846.416 822.616 517.949 1083.3 442.489 1145.78C419.652 1164.69 385.959 1161.54 367.067 1138.72C348.176 1115.91 351.361 1082.21 374.198 1063.31L901.385 638.079C912.024 629.271 917.723 617.386 917.96 603.812L920.167 501.66C920.546 487.969 926.246 476.084 936.884 467.275Z" fill="url(#paint9_linear)" style="mix-blend-mode:multiply"/>
<path d="M936.884 467.275L1465.81 75.6641C1488.65 56.7557 1522.34 59.911 1541.23 82.7271C1560.12 105.543 1556.94 139.234 1534.1 158.142L957.516 589.215C946.878 598.023 941.178 609.908 940.799 623.599L938.593 725.751C938.331 739.584 932.514 751.327 921.876 760.136C846.416 822.616 517.949 1083.3 442.489 1145.78C419.652 1164.69 385.959 1161.54 367.067 1138.72C348.176 1115.91 351.361 1082.21 374.198 1063.31L901.385 638.079C912.024 629.271 917.723 617.386 917.96 603.812L920.167 501.66C920.546 487.969 926.246 476.084 936.884 467.275Z" fill="#0784B2"/>
</g>
</g>
<rect width="1440" height="500" fill="#0038C7"/>
<rect width="1440" height="500" fill="url(#paint10_linear)" fill-opacity="0.75"/>
<mask id="mask2" mask-type="alpha" maskUnits="userSpaceOnUse" x="0" y="0" width="1440" height="500">
<rect width="1440" height="500" fill="url(#paint11_linear)"/>
</mask>
<g mask="url(#mask2)">
<path opacity="0.3" d="M161.087 741.084L160.91 740.87L158.6 742.783C125.388 770.282 76.3985 765.692 48.9283 732.515C21.4581 699.338 26.0868 650.352 59.2984 622.853L300.056 423.508L323.189 404.354C339.923 390.498 348.931 371.729 349.306 350.352C349.306 350.351 349.306 350.35 349.306 350.348L352.637 196.099L352.638 196.091C353.016 176.092 361.177 159.353 376.796 146.42L568.502 -12.3111C601.714 -39.81 650.704 -35.2195 678.174 -2.04261C705.644 31.1343 701.015 80.1202 667.804 107.619L543.355 210.661L468.172 272.913L404.127 325.941C387.407 339.785 378.209 358.334 377.796 380.12L374.642 534.591L374.642 534.596C374.263 554.6 366.097 571.338 350.698 584.089L161.087 741.084ZM312.583 -3.4665L312.582 -3.45733L312.582 -3.4482L309.251 150.814L309.25 150.822C308.872 170.814 300.502 187.733 285.092 200.492L284.424 201.045L283.757 201.598L283.089 202.151L282.421 202.704L281.754 203.256L281.086 203.809L280.418 204.362L279.751 204.915L279.083 205.468L278.415 206.02L277.748 206.573L277.08 207.126L276.413 207.679L275.745 208.232L275.077 208.784L274.41 209.337L273.742 209.89L273.074 210.443L272.407 210.996L271.739 211.548L271.072 212.101L270.404 212.654L269.736 213.207L269.069 213.759L268.401 214.312L267.734 214.865L267.066 215.418L266.399 215.97L265.731 216.523L265.063 217.076L264.396 217.628L263.728 218.181L263.061 218.734L262.393 219.287L261.726 219.839L261.058 220.392L260.391 220.945L259.723 221.497L259.056 222.05L258.388 222.603L257.721 223.156L257.053 223.708L256.386 224.261L255.718 224.814L255.051 225.366L254.383 225.919L253.716 226.472L253.048 227.024L252.381 227.577L251.713 228.13L251.046 228.682L250.378 229.235L249.711 229.788L249.043 230.34L248.376 230.893L247.708 231.446L247.041 231.998L246.374 232.551L245.706 233.103L245.039 233.656L244.371 234.209L243.704 234.761L243.036 235.314L242.369 235.867L241.702 236.419L241.034 236.972L240.367 237.524L239.699 238.077L239.032 238.63L238.365 239.182L237.697 239.735L237.03 240.287L236.362 240.84L235.695 241.393L235.028 241.945L234.36 242.498L233.693 243.05L233.025 243.603L232.358 244.156L231.691 244.708L231.023 245.261L230.356 245.813L229.689 246.366L229.021 246.918L228.354 247.471L227.687 248.023L227.019 248.576L226.352 249.129L225.685 249.681L225.017 250.234L224.35 250.786L223.683 251.339L223.015 251.891L222.348 252.444L221.681 252.996L221.013 253.549L220.346 254.101L219.679 254.654L219.011 255.206L218.344 255.759L217.677 256.311L217.01 256.864L216.342 257.416L215.675 257.969L215.008 258.522L214.34 259.074L213.673 259.626L213.006 260.179L212.339 260.731L211.671 261.284L211.004 261.836L210.337 262.389L209.67 262.941L209.002 263.494L208.335 264.046L207.668 264.599L207 265.151L206.333 265.704L205.666 266.256L204.999 266.809L204.331 267.361L203.664 267.914L202.997 268.466L202.33 269.019L201.663 269.571L200.995 270.124L200.328 270.676L199.661 271.229L198.994 271.781L198.326 272.333L197.659 272.886L196.992 273.438L196.325 273.991L195.658 274.543L194.99 275.096L194.323 275.648L193.656 276.201L192.989 276.753L192.322 277.305L191.654 277.858L190.987 278.41L190.32 278.963L189.653 279.515L188.986 280.068L188.318 280.62L187.651 281.172L186.984 281.725L186.317 282.277L185.65 282.83L184.983 283.382L184.315 283.934L183.648 284.487L182.981 285.039L182.314 285.592L181.647 286.144L180.98 286.697L180.312 287.249L179.645 287.801L178.978 288.354L178.311 288.906L177.644 289.459L176.977 290.011L176.309 290.563L175.642 291.116L174.975 291.668L174.308 292.22L173.641 292.773L172.974 293.325L172.307 293.878L171.639 294.43L170.972 294.982L170.305 295.535L169.638 296.087L168.971 296.64L168.304 297.192L167.637 297.744L166.97 298.297L166.302 298.849L165.635 299.401L164.968 299.954L164.301 300.506L163.634 301.059L162.967 301.611L162.3 302.163L161.633 302.716L160.965 303.268L160.298 303.82L159.631 304.373L158.964 304.925L158.297 305.477L157.63 306.03L156.963 306.582L156.296 307.134L155.629 307.687L154.962 308.239L154.294 308.792L153.627 309.344L152.96 309.896L152.293 310.449L151.626 311.001L150.959 311.553L150.292 312.106L149.625 312.658L148.958 313.21L148.291 313.763L147.623 314.315L146.956 314.867L146.289 315.42L145.622 315.972L144.955 316.524L144.288 317.077L143.621 317.629L142.954 318.181L142.287 318.734L141.62 319.286L140.953 319.838L140.286 320.391L139.618 320.943L138.951 321.495L138.284 322.048L137.617 322.6L136.95 323.152L136.283 323.705L135.616 324.257L134.949 324.809L134.282 325.362L133.615 325.914L132.948 326.466L132.281 327.019L131.614 327.571L130.946 328.123L130.279 328.676L129.612 329.228L128.945 329.78L128.278 330.333L127.611 330.885L126.944 331.437L126.277 331.99L125.61 332.542L124.943 333.094L124.276 333.647L123.609 334.199L122.942 334.751L122.275 335.304L121.608 335.856L120.94 336.408L120.273 336.961L119.606 337.513L118.939 338.065L118.272 338.618L117.605 339.17L116.938 339.722L116.271 340.275L115.604 340.827L114.937 341.379L114.27 341.932L113.603 342.484L112.936 343.036L112.269 343.589L111.602 344.141L110.934 344.693L110.267 345.246L109.6 345.798L108.933 346.35L108.266 346.903L107.599 347.455L106.932 348.007L106.265 348.56L105.598 349.112L104.931 349.664L104.264 350.216L103.597 350.769L102.93 351.321L102.263 351.873L101.596 352.426L100.928 352.978L100.261 353.53L99.5943 354.083L98.9272 354.635L98.2602 355.187L97.5931 355.74L96.926 356.292L96.2589 356.844L95.5919 357.397L94.9248 357.949L94.2577 358.501L93.5906 359.054L92.9236 359.606L92.2565 360.158L91.5894 360.711L90.9223 361.263L90.2553 361.815L89.5882 362.368L88.9211 362.92L88.254 363.472L87.5869 364.025L86.9199 364.577L86.2528 365.129L85.5857 365.682L84.9186 366.234L84.2515 366.786L83.5844 367.339L82.9174 367.891L82.2503 368.443L81.5832 368.996L80.9161 369.548L80.249 370.1L79.5819 370.653L78.9148 371.205L78.2477 371.758L77.5806 372.31L76.9135 372.862L76.2464 373.415L75.5793 373.967L74.9122 374.519L74.2451 375.072L73.578 375.624L72.9109 376.176L72.2438 376.729L71.5767 377.281L70.9096 377.833L70.2425 378.386L69.5754 378.938L68.9083 379.491L68.2412 380.043L67.5741 380.595L66.907 381.148L66.2398 381.7L65.5727 382.252L64.9056 382.805L64.2385 383.357L63.5714 383.909L62.9043 384.462L62.2371 385.014L61.57 385.567L60.9029 386.119L60.2358 386.671L59.5686 387.224L58.9015 387.776L58.2344 388.328L57.5672 388.881L56.9001 389.433L56.233 389.986L55.5658 390.538L54.8987 391.09L54.2315 391.643L53.5644 392.195L52.8972 392.748L52.2301 393.3L51.5629 393.852L50.8958 394.405L50.2286 394.957L49.5615 395.509L48.8943 396.062L48.2272 396.614L47.56 397.167L46.8928 397.719L46.2257 398.272L45.5585 398.824L44.8914 399.376L44.2242 399.929L43.557 400.481L42.8898 401.034L42.2227 401.586L41.5555 402.138L40.8883 402.691L40.2211 403.243L39.5539 403.796L38.8867 404.348L38.2196 404.901L37.5524 405.453L36.8852 406.005L36.218 406.558L35.5508 407.11L34.8836 407.663L34.2164 408.215L33.5492 408.768L32.882 409.32L32.2148 409.872L31.5475 410.425L30.8803 410.977L30.2131 411.53L29.5459 412.082L28.8787 412.635L28.2114 413.187L27.5442 413.74L26.877 414.292L26.2098 414.845L25.5425 415.397L24.8753 415.949L24.208 416.502L23.5408 417.054L22.8736 417.607L22.2063 418.159L21.5391 418.712L20.8718 419.264L20.2046 419.817L19.5373 420.369L18.87 420.922L18.2028 421.474L17.5355 422.027L16.8682 422.579L16.201 423.132L15.5337 423.684L14.8664 424.237L14.1991 424.789L13.5319 425.342L12.8646 425.894L12.1973 426.447L11.53 426.999L10.8627 427.552L10.1954 428.104L9.5281 428.657L8.8608 429.209L8.19349 429.762L7.52618 430.314L6.85888 430.867L6.19156 431.419L5.52424 431.972L4.85691 432.524L4.18959 433.077L3.52226 433.63L2.85493 434.182L2.1876 434.735L1.52026 435.287L0.852921 435.84L0.185577 436.392L-0.481767 436.945L-1.14912 437.497L-1.81648 438.05L-2.48383 438.603L-3.15119 439.155L-3.81856 439.708L-4.48593 440.26L-5.15329 440.813L-5.82067 441.365L-6.48805 441.918L-7.15543 442.471L-7.82281 443.023L-8.4902 443.576L-9.15759 444.128L-9.825 444.681L-10.4924 445.234L-11.1598 445.786L-11.8272 446.339L-12.4946 446.891L-13.162 447.444L-13.8294 447.997L-14.4969 448.549L-15.1643 449.102L-15.8317 449.654L-16.4991 450.207L-17.1666 450.76L-17.834 451.312L-18.5015 451.865L-19.1689 452.418L-19.8364 452.97L-20.5038 453.523L-21.1713 454.076L-21.8387 454.628L-22.5062 455.181L-23.1737 455.734L-23.8411 456.286L-24.5086 456.839L-25.1761 457.392L-25.8436 457.944L-26.5111 458.497L-27.1786 459.05L-27.8461 459.602L-28.5136 460.155L-29.1811 460.708L-29.8486 461.26L-30.5161 461.813L-31.1836 462.366L-31.8511 462.918L-32.5187 463.471L-33.1862 464.024L-33.8537 464.577L-34.5213 465.129L-35.1888 465.682L-35.8564 466.235L-36.5239 466.787L-37.1915 467.34L-37.859 467.893L-38.5266 468.446L-39.1942 468.998L-39.8618 469.551L-40.5293 470.104L-41.1969 470.657L-41.8645 471.209L-42.5321 471.762L-43.1997 472.315L-43.8673 472.868L-44.5349 473.42L-45.2025 473.973L-45.8701 474.526L-46.5377 475.079L-47.2054 475.632L-47.873 476.184L-48.5406 476.737L-49.2083 477.29L-49.8759 477.843L-50.5436 478.396L-51.2112 478.948L-51.8789 479.501L-52.5465 480.054L-53.2142 480.607L-53.8819 481.16L-54.5495 481.713L-55.2172 482.265L-55.8849 482.818L-56.5526 483.371C-89.7641 510.87 -138.754 506.279 -166.224 473.103C-193.694 439.926 -189.065 390.94 -155.854 363.441L-155.64 363.263L257.975 20.7939C274.709 6.93866 283.717 -11.8308 284.092 -33.2074C284.092 -33.2088 284.092 -33.2101 284.092 -33.2114L287.423 -187.443C287.423 -187.447 287.423 -187.45 287.423 -187.454C287.975 -207.27 296.194 -224.398 311.582 -237.14L353.565 -271.901C386.776 -299.4 435.766 -294.809 463.236 -261.632C490.706 -228.455 486.077 -179.469 452.866 -151.971L338.913 -57.6185C322.174 -43.7591 313.179 -24.9953 312.583 -3.4665ZM417.497 579.23L417.497 579.222C417.876 559.224 426.036 542.485 441.656 529.552L442.323 528.999L442.991 528.446L443.659 527.894L444.326 527.341L444.994 526.788L445.662 526.235L446.329 525.682L446.997 525.129L447.665 524.577L448.332 524.024L449 523.471L449.667 522.918L450.335 522.365L451.003 521.813L451.67 521.26L452.338 520.707L453.006 520.154L453.673 519.602L454.341 519.049L455.008 518.496L455.676 517.943L456.344 517.39L457.011 516.838L457.679 516.285L458.346 515.732L459.014 515.179L459.682 514.627L460.349 514.074L461.017 513.521L461.684 512.968L462.352 512.416L463.019 511.863L463.687 511.31L464.354 510.758L465.022 510.205L465.689 509.652L466.357 509.099L467.025 508.547L467.692 507.994L468.36 507.441L469.027 506.889L469.695 506.336L470.362 505.783L471.03 505.231L471.697 504.678L472.365 504.125L473.032 503.573L473.7 503.02L474.367 502.467L475.034 501.915L475.702 501.362L476.369 500.809L477.037 500.257L477.704 499.704L478.372 499.151L479.039 498.599L479.707 498.046L480.374 497.493L481.042 496.941L481.709 496.388L482.376 495.836L483.044 495.283L483.711 494.73L484.379 494.178L485.046 493.625L485.714 493.072L486.381 492.52L487.048 491.967L487.716 491.415L488.383 490.862L489.051 490.309L489.718 489.757L490.385 489.204L491.053 488.652L491.72 488.099L492.387 487.546L493.055 486.994L493.722 486.441L494.39 485.889L495.057 485.336L495.724 484.784L496.392 484.231L497.059 483.678L497.726 483.126L498.394 482.573L499.061 482.021L499.728 481.468L500.396 480.916L501.063 480.363L501.73 479.811L502.398 479.258L503.065 478.706L503.732 478.153L504.4 477.6L505.067 477.048L505.734 476.495L506.402 475.943L507.069 475.39L507.736 474.838L508.404 474.285L509.071 473.733L509.738 473.18L510.405 472.628L511.073 472.075L511.74 471.523L512.407 470.97L513.075 470.418L513.742 469.865L514.409 469.313L515.076 468.76L515.744 468.208L516.411 467.655L517.078 467.103L517.745 466.55L518.413 465.998L519.08 465.445L519.747 464.893L520.414 464.34L521.082 463.788L521.749 463.235L522.416 462.683L523.083 462.13L523.751 461.578L524.418 461.026L525.085 460.473L525.752 459.921L526.42 459.368L527.087 458.816L527.754 458.263L528.421 457.711L529.088 457.158L529.756 456.606L530.423 456.053L531.09 455.501L531.757 454.949L532.424 454.396L533.092 453.844L533.759 453.291L534.426 452.739L535.093 452.186L535.761 451.634L536.428 451.082L537.095 450.529L537.762 449.977L538.429 449.424L539.096 448.872L539.764 448.319L540.431 447.767L541.098 447.215L541.765 446.662L542.432 446.11L543.099 445.557L543.767 445.005L544.434 444.453L545.101 443.9L545.768 443.348L546.435 442.795L547.102 442.243L547.77 441.691L548.437 441.138L549.104 440.586L549.771 440.033L550.438 439.481L551.105 438.929L551.773 438.376L552.44 437.824L553.107 437.271L553.774 436.719L554.441 436.167L555.108 435.614L555.775 435.062L556.442 434.509L557.11 433.957L557.777 433.405L558.444 432.852L559.111 432.3L559.778 431.748L560.445 431.195L561.112 430.643L561.78 430.09L562.447 429.538L563.114 428.986L563.781 428.433L564.448 427.881L565.115 427.329L565.782 426.776L566.449 426.224L567.116 425.672L567.784 425.119L568.451 424.567L569.118 424.014L569.785 423.462L570.452 422.91L571.119 422.357L571.786 421.805L572.453 421.253L573.12 420.7L573.787 420.148L574.455 419.596L575.122 419.043L575.789 418.491L576.456 417.939L577.123 417.386L577.79 416.834L578.457 416.282L579.124 415.729L579.791 415.177L580.458 414.624L581.125 414.072L581.793 413.52L582.46 412.967L583.127 412.415L583.794 411.863L584.461 411.31L585.128 410.758L585.795 410.206L586.462 409.653L587.129 409.101L587.796 408.549L588.463 407.996L589.13 407.444L589.798 406.892L590.465 406.339L591.132 405.787L591.799 405.235L592.466 404.682L593.133 404.13L593.8 403.578L594.467 403.025L595.134 402.473L595.801 401.921L596.468 401.368L597.135 400.816L597.802 400.264L598.469 399.711L599.137 399.159L599.804 398.607L600.471 398.054L601.138 397.502L601.805 396.95L602.472 396.397L603.139 395.845L603.806 395.293L604.473 394.741L605.14 394.188L605.807 393.636L606.474 393.084L607.141 392.531L607.808 391.979L608.476 391.427L609.143 390.874L609.81 390.322L610.477 389.77L611.144 389.217L611.811 388.665L612.478 388.113L613.145 387.56L613.812 387.008L614.479 386.456L615.146 385.903L615.813 385.351L616.48 384.799L617.147 384.246L617.814 383.694L618.481 383.142L619.149 382.589L619.816 382.037L620.483 381.485L621.15 380.932L621.817 380.38L622.484 379.828L623.151 379.275L623.818 378.723L624.485 378.171L625.152 377.618L625.819 377.066L626.486 376.514L627.153 375.961L627.82 375.409L628.488 374.857L629.155 374.304L629.822 373.752L630.489 373.2L631.156 372.647L631.823 372.095L632.49 371.543L633.157 370.99L633.824 370.438L634.491 369.886L635.158 369.333L635.825 368.781L636.492 368.229L637.16 367.676L637.827 367.124L638.494 366.572L639.161 366.019L639.828 365.467L640.495 364.915L641.162 364.362L641.829 363.81L642.496 363.258L643.163 362.705L643.83 362.153L644.497 361.601L645.164 361.048L645.832 360.496L646.499 359.944L647.166 359.391L647.833 358.839L648.5 358.287L649.167 357.734L649.834 357.182L650.501 356.63L651.168 356.077L651.835 355.525L652.503 354.973L653.17 354.42L653.837 353.868L654.504 353.316L655.171 352.763L655.838 352.211L656.505 351.658L657.172 351.106L657.839 350.554L658.506 350.001L659.174 349.449L659.841 348.897L660.508 348.344L661.175 347.792L661.842 347.24L662.509 346.687L663.176 346.135L663.843 345.582L664.511 345.03L665.178 344.478L665.845 343.925L666.512 343.373L667.179 342.821L667.846 342.268L668.513 341.716L669.18 341.163L669.848 340.611L670.515 340.059L671.182 339.506L671.849 338.954L672.516 338.401L673.183 337.849L673.85 337.297L674.518 336.744L675.185 336.192L675.852 335.64L676.519 335.087L677.186 334.535L677.853 333.982L678.52 333.43L679.188 332.878L679.855 332.325L680.522 331.773L681.189 331.22L681.856 330.668L682.523 330.115L683.191 329.563L683.858 329.011L684.525 328.458L685.192 327.906L685.859 327.353L686.527 326.801L687.194 326.249L687.861 325.696L688.528 325.144L689.195 324.591L689.862 324.039L690.53 323.486L691.197 322.934L691.864 322.382L692.531 321.829L693.199 321.277L693.866 320.724L694.533 320.172L695.2 319.619L695.867 319.067L696.535 318.514L697.202 317.962L697.869 317.41L698.536 316.857L699.203 316.305L699.871 315.752L700.538 315.2L701.205 314.647L701.872 314.095L702.54 313.542L703.207 312.99L703.874 312.437L704.541 311.885L705.209 311.332L705.876 310.78L706.543 310.227L707.21 309.675L707.878 309.122L708.545 308.57L709.212 308.018L709.879 307.465L710.547 306.913L711.214 306.36L711.881 305.808L712.549 305.255L713.216 304.703L713.883 304.15L714.55 303.598L715.218 303.045L715.885 302.492L716.552 301.94L717.22 301.387L717.887 300.835L718.554 300.282L719.222 299.73L719.889 299.177L720.556 298.625L721.223 298.072L721.891 297.52L722.558 296.967L723.225 296.415L723.893 295.862L724.56 295.31L725.227 294.757L725.895 294.204L726.562 293.652L727.229 293.099L727.897 292.547L728.564 291.994L729.231 291.442L729.899 290.889L730.566 290.337L731.234 289.784L731.901 289.231L732.568 288.679L733.236 288.126L733.903 287.574L734.57 287.021L735.238 286.468L735.905 285.916L736.573 285.363L737.24 284.811L737.907 284.258L738.575 283.705L739.242 283.153L739.91 282.6L740.577 282.048L741.245 281.495L741.912 280.942L742.579 280.39L743.247 279.837L743.914 279.284L744.582 278.732L745.249 278.179L745.917 277.627L746.584 277.074L747.251 276.521L747.919 275.969L748.586 275.416L749.254 274.863L749.921 274.311L750.589 273.758L751.256 273.205L751.924 272.653L752.591 272.1L753.259 271.547L753.926 270.995L754.594 270.442L755.261 269.889L755.929 269.337L756.596 268.784L757.264 268.231L757.931 267.679L758.599 267.126L759.266 266.573L759.934 266.02L760.601 265.468L761.269 264.915L761.937 264.362L762.604 263.81L763.272 263.257L763.939 262.704L764.607 262.151L765.274 261.599L765.942 261.046L766.609 260.493L767.277 259.94L767.945 259.388L768.612 258.835L769.28 258.282L769.947 257.729L770.615 257.177L771.283 256.624L771.95 256.071L772.618 255.518L773.285 254.965L773.953 254.413L774.621 253.86L775.288 253.307L775.956 252.754L776.624 252.201L777.291 251.649L777.959 251.096L778.627 250.543L779.294 249.99L779.962 249.437L780.63 248.885L781.297 248.332L781.965 247.779L782.633 247.226L783.3 246.673C816.512 219.174 865.501 223.765 892.971 256.942C920.442 290.119 915.813 339.105 882.601 366.603L882.387 366.781L468.772 709.25C452.062 723.087 442.85 741.636 442.655 763.263C442.655 763.269 442.655 763.276 442.655 763.282L439.325 917.487C439.325 917.49 439.325 917.494 439.324 917.497C438.773 937.313 430.554 954.442 415.166 967.184L373.183 1001.95C339.972 1029.44 290.982 1024.85 263.512 991.677C236.042 958.5 240.67 909.514 273.882 882.015L388.049 787.485C404.784 773.629 413.792 754.858 414.166 733.48L417.497 579.23Z" stroke="url(#paint12_linear)" stroke-width="6"/>
<g style="mix-blend-mode:multiply" opacity="0.2">
<path d="M752.802 807.141C725.688 829.592 685.683 825.845 663.253 798.755C640.823 771.666 644.605 731.664 671.719 709.214L861.012 552.481L879.2 537.422C891.831 526.963 898.598 512.852 898.88 496.736L901.499 375.45C901.81 359.026 908.548 345.222 921.348 334.625L1483.57 -139.182C1510.68 -161.632 1550.69 -157.886 1573.12 -130.796C1595.55 -103.706 1591.76 -63.705 1564.65 -41.2548L1055.31 388.767L996.199 437.711L945.845 479.404C933.214 489.863 926.307 503.806 925.996 520.229L923.516 641.684C923.205 658.108 916.467 671.911 903.837 682.37L752.941 807.31L752.802 807.141ZM870.074 33.0556L1314.57 -343.281C1341.69 -365.731 1381.69 -361.985 1404.12 -334.895C1426.55 -307.805 1422.77 -267.804 1395.66 -245.354L894.571 177.835C881.94 188.293 875.173 202.405 874.723 218.66L872.103 339.947C871.792 356.37 864.886 370.313 852.255 380.772C762.661 454.955 673.235 528.999 583.641 603.182C556.527 625.632 516.523 621.886 494.092 594.796C471.662 567.706 475.444 527.705 502.558 505.254L502.727 505.115L827.927 235.853C840.557 225.394 847.324 211.283 847.606 195.167L850.226 73.8805C850.676 57.6253 857.443 43.5137 870.074 33.0556ZM954.524 983.573L921.516 1010.9C894.402 1033.35 854.397 1029.61 831.967 1002.52C809.537 975.428 813.319 935.427 840.433 912.977L930.195 838.654C942.826 828.196 949.593 814.085 949.875 797.969L952.494 676.682C952.805 660.259 959.543 646.455 972.343 635.857C1061.94 561.674 1562.85 138.624 1652.45 64.4412C1679.56 41.991 1719.57 45.7374 1742 72.8272C1764.43 99.917 1760.65 139.918 1733.53 162.368L1733.36 162.508L996.671 780.776C984.041 791.235 977.134 805.178 976.992 821.462L974.372 942.748C973.922 959.004 967.155 973.115 954.524 983.573Z" fill="#0672DD"/>
<path d="M752.802 807.141C725.688 829.592 685.683 825.845 663.253 798.755C640.823 771.666 644.605 731.664 671.719 709.214L861.012 552.481L879.2 537.422C891.831 526.963 898.598 512.852 898.88 496.736L901.499 375.45C901.81 359.026 908.548 345.222 921.348 334.625L1483.57 -139.182C1510.68 -161.632 1550.69 -157.886 1573.12 -130.796C1595.55 -103.706 1591.76 -63.705 1564.65 -41.2548L1055.31 388.767L996.199 437.711L945.845 479.404C933.214 489.863 926.307 503.806 925.996 520.229L923.516 641.684C923.205 658.108 916.467 671.911 903.837 682.37L752.941 807.31L752.802 807.141ZM870.074 33.0556L1314.57 -343.281C1341.69 -365.731 1381.69 -361.985 1404.12 -334.895C1426.55 -307.805 1422.77 -267.804 1395.66 -245.354L894.571 177.835C881.94 188.293 875.173 202.405 874.723 218.66L872.103 339.947C871.792 356.37 864.886 370.313 852.255 380.772C762.661 454.955 673.235 528.999 583.641 603.182C556.527 625.632 516.523 621.886 494.092 594.796C471.662 567.706 475.444 527.705 502.558 505.254L502.727 505.115L827.927 235.853C840.557 225.394 847.324 211.283 847.606 195.167L850.226 73.8805C850.676 57.6253 857.443 43.5137 870.074 33.0556ZM954.524 983.573L921.516 1010.9C894.402 1033.35 854.397 1029.61 831.967 1002.52C809.537 975.428 813.319 935.427 840.433 912.977L930.195 838.654C942.826 828.196 949.593 814.085 949.875 797.969L952.494 676.682C952.805 660.259 959.543 646.455 972.343 635.857C1061.94 561.674 1562.85 138.624 1652.45 64.4412C1679.56 41.991 1719.57 45.7374 1742 72.8272C1764.43 99.917 1760.65 139.918 1733.53 162.368L1733.36 162.508L996.671 780.776C984.041 791.235 977.134 805.178 976.992 821.462L974.372 942.748C973.922 959.004 967.155 973.115 954.524 983.573Z" fill="#0B9CC7"/>
</g>
</g>
<defs>
<linearGradient id="paint0_linear" x1="15.6059" y1="397" x2="1159.78" y2="-118.199" gradientUnits="userSpaceOnUse">
<stop stop-color="#1E77C2"/>
<stop offset="1" stop-color="#00A5D7"/>
</linearGradient>
<linearGradient id="paint1_linear" x1="15.6059" y1="397" x2="1159.78" y2="-118.199" gradientUnits="userSpaceOnUse">
<stop stop-color="#30FFC2"/>
<stop offset="1" stop-color="#20A4E6"/>
</linearGradient>
<linearGradient id="paint2_linear" x1="3248.42" y1="-1818.24" x2="822.203" y2="1833.53" gradientUnits="userSpaceOnUse">
<stop stop-color="#326BFF"/>
<stop offset="1" stop-color="#13E3FF"/>
</linearGradient>
<linearGradient id="paint3_linear" x1="3297.87" y1="-1586.16" x2="871.653" y2="2065.6" gradientUnits="userSpaceOnUse">
<stop stop-color="#326BFF"/>
<stop offset="1" stop-color="#13E3FF"/>
</linearGradient>
<linearGradient id="paint4_linear" x1="3357.68" y1="-1356.48" x2="931.461" y2="2295.28" gradientUnits="userSpaceOnUse">
<stop stop-color="#326BFF"/>
<stop offset="1" stop-color="#13E3FF"/>
</linearGradient>
<linearGradient id="paint5_linear" x1="-9.43145e-06" y1="524" x2="1066.19" y2="-301.234" gradientUnits="userSpaceOnUse">
<stop stop-color="#0D3575"/>
<stop offset="1" stop-color="#00D2ED"/>
</linearGradient>
<linearGradient id="paint6_linear" x1="3.5612e-05" y1="684.592" x2="920.45" y2="-575.402" gradientUnits="userSpaceOnUse">
<stop stop-color="#326BFF"/>
<stop offset="1" stop-color="#05FF00"/>
</linearGradient>
<linearGradient id="paint7_linear" x1="443.092" y1="715.226" x2="1658.81" y2="-291.381" gradientUnits="userSpaceOnUse">
<stop stop-color="#0694CE"/>
<stop offset="1" stop-color="#0694CE" stop-opacity="0"/>
</linearGradient>
<linearGradient id="paint8_linear" x1="463.31" y1="993.319" x2="1679.03" y2="-13.2869" gradientUnits="userSpaceOnUse">
<stop stop-color="#0694CE"/>
<stop offset="1" stop-color="#0694CE" stop-opacity="0"/>
</linearGradient>
<linearGradient id="paint9_linear" x1="480.092" y1="1275.23" x2="1695.81" y2="268.619" gradientUnits="userSpaceOnUse">
<stop stop-color="#0694CE"/>
<stop offset="1" stop-color="#0694CE" stop-opacity="0"/>
</linearGradient>
<linearGradient id="paint10_linear" x1="106" y1="405" x2="1320.09" y2="-192.925" gradientUnits="userSpaceOnUse">
<stop offset="0.536405" stop-color="#0B81C2"/>
<stop offset="1" stop-color="#03A6DA"/>
</linearGradient>
<linearGradient id="paint11_linear" x1="3.5612e-05" y1="684.592" x2="920.45" y2="-575.402" gradientUnits="userSpaceOnUse">
<stop stop-color="#326BFF"/>
<stop offset="1" stop-color="#05FF00"/>
</linearGradient>
<linearGradient id="paint12_linear" x1="83" y1="262" x2="889" y2="58.0001" gradientUnits="userSpaceOnUse">
<stop stop-color="#178BD3"/>
<stop offset="1" stop-color="#0094FF" stop-opacity="0"/>
</linearGradient>
</defs>
</svg>
