<svg width="1440" height="760" viewBox="0 0 1440 760" fill="none" xmlns="http://www.w3.org/2000/svg">
<path d="M0 0H1440V760H0V0Z" fill="#003177"/>
<rect x="2" y="363" width="1438" height="397" fill="url(#paint0_linear)" fill-opacity="0.7"/>
<g clip-path="url(#clip0)">
<path opacity="0.6" d="M1022.06 549.898L1022.25 550.038L1146.97 376.569C1157.24 362.291 1160.59 346.209 1156.71 329.135L1156.71 329.132L1127.44 199.611L1022.06 549.898ZM1022.06 549.898L1021.19 551.116M1022.06 549.898L1021.19 551.116M1021.19 551.116C999.088 581.852 957.046 588.873 927.084 566.909C897.121 544.944 890.711 502.405 912.81 471.669L1070.36 252.531L1085.5 231.475C1096.26 216.509 1099.76 199.208 1095.73 181.605M1021.19 551.116L1095.73 181.605M1066.65 52.2165L1066.66 52.2204L1095.73 181.599C1095.73 181.601 1095.73 181.603 1095.73 181.605M1066.65 52.2165L1094.27 181.934L1095.73 181.605M1066.65 52.2165C1062.77 35.1452 1066.12 19.0633 1076.53 4.58684M1066.65 52.2165L1076.53 4.58684M994.501 -105.952L994.499 -105.961C990.615 -123.749 994.105 -141.047 1004.87 -156.017L1079.44 -259.737C1101.54 -290.473 1095.13 -333.013 1065.17 -354.977C1035.2 -376.941 993.161 -369.92 971.063 -339.184L943.589 -300.972C933.327 -286.699 930.017 -270.281 933.716 -253.334C933.717 -253.332 933.717 -253.331 933.717 -253.329L962.787 -123.96C962.788 -123.958 962.788 -123.956 962.789 -123.954M994.501 -105.952L961.332 -123.625L962.789 -123.954M994.501 -105.952L1023.57 23.4325L1023.58 23.4365C1027.46 40.5046 1023.97 56.7821 1013.7 71.0662C976.443 122.887 910.092 205.901 843.699 288.967L843.672 289.001C777.312 372.025 710.914 455.098 673.606 506.989C651.507 537.726 609.465 544.746 579.503 522.782C564.099 511.49 550.869 501.517 544.192 490.559C540.892 485.141 539.237 479.543 539.707 473.454C540.179 467.344 542.802 460.584 548.337 452.887L548.352 452.865L548.367 452.843L565.37 427.347L952.531 -74.0421L952.547 -74.0624L952.562 -74.0832C963.322 -89.0495 966.818 -106.351 962.789 -123.954M994.501 -105.952L962.789 -123.954M1076.53 4.58684L1201.98 -169.904M1076.53 4.58684L1201.98 -169.904M1201.98 -169.904C1224.08 -200.64 1266.12 -207.661 1296.09 -185.697M1201.98 -169.904L1296.09 -185.697M1296.09 -185.697C1326.05 -163.733 1332.46 -121.193 1310.36 -90.457M1296.09 -185.697L1310.36 -90.457M1310.36 -90.457L1228.92 22.8158M1310.36 -90.457L1228.92 22.8158M1228.92 22.8158L1179.72 91.2476M1228.92 22.8158L1179.72 91.2476M1179.72 91.2476L1137.81 149.541M1179.72 91.2476L1137.81 149.541M1137.81 149.541C1127.05 164.501 1123.36 181.662 1127.44 199.609L1137.81 149.541ZM1199.21 357.5L1199.21 357.496C1195.33 340.425 1198.68 324.343 1209.09 309.866L1209.53 309.259L1209.96 308.651L1210.4 308.043L1210.84 307.435L1211.27 306.828L1211.71 306.22L1212.15 305.612L1212.58 305.005L1213.02 304.397L1213.46 303.789L1213.89 303.181L1214.33 302.574L1214.77 301.966L1215.21 301.358L1215.64 300.751L1216.08 300.143L1216.52 299.535L1216.95 298.928L1217.39 298.32L1217.83 297.712L1218.26 297.105L1218.7 296.497L1219.14 295.89L1219.57 295.282L1220.01 294.674L1220.45 294.067L1220.88 293.459L1221.32 292.851L1221.76 292.244L1222.2 291.636L1222.63 291.029L1223.07 290.421L1223.51 289.813L1223.94 289.206L1224.38 288.598L1224.82 287.991L1225.25 287.383L1225.69 286.775L1226.13 286.168L1226.56 285.56L1227 284.953L1227.44 284.345L1227.87 283.738L1228.31 283.13L1228.75 282.522L1229.18 281.915L1229.62 281.307L1230.06 280.7L1230.5 280.092L1230.93 279.485L1231.37 278.877L1231.81 278.27L1232.24 277.662L1232.68 277.055L1233.12 276.447L1233.55 275.84L1233.99 275.232L1234.43 274.625L1234.86 274.017L1235.3 273.41L1235.74 272.802L1236.17 272.195L1236.61 271.587L1237.05 270.98L1237.48 270.372L1237.92 269.765L1238.36 269.157L1238.79 268.55L1239.23 267.942L1239.67 267.335L1240.1 266.727L1240.54 266.12L1240.98 265.512L1241.41 264.905L1241.85 264.298L1242.29 263.69L1242.72 263.083L1243.16 262.475L1243.6 261.868L1244.03 261.26L1244.47 260.653L1244.91 260.046L1245.35 259.438L1245.78 258.831L1246.22 258.223L1246.66 257.616L1247.09 257.008L1247.53 256.401L1247.97 255.794L1248.4 255.186L1248.84 254.579L1249.28 253.971L1249.71 253.364L1250.15 252.757L1250.59 252.149L1251.02 251.542L1251.46 250.934L1251.9 250.327L1252.33 249.72L1252.77 249.112L1253.21 248.505L1253.64 247.898L1254.08 247.29L1254.52 246.683L1254.95 246.075L1255.39 245.468L1255.83 244.861L1256.26 244.253L1256.7 243.646L1257.14 243.039L1257.57 242.431L1258.01 241.824L1258.45 241.217L1258.88 240.609L1259.32 240.002L1259.76 239.395L1260.19 238.787L1260.63 238.18L1261.07 237.573L1261.5 236.965L1261.94 236.358L1262.38 235.751L1262.81 235.143L1263.25 234.536L1263.69 233.929L1264.12 233.321L1264.56 232.714L1265 232.107L1265.43 231.499L1265.87 230.892L1266.31 230.285L1266.74 229.678L1267.18 229.07L1267.62 228.463L1268.05 227.856L1268.49 227.248L1268.93 226.641L1269.36 226.034L1269.8 225.427L1270.23 224.819L1270.67 224.212L1271.11 223.605L1271.54 222.997L1271.98 222.39L1272.42 221.783L1272.85 221.176L1273.29 220.568L1273.73 219.961L1274.16 219.354L1274.6 218.747L1275.04 218.139L1275.47 217.532L1275.91 216.925L1276.35 216.318L1276.78 215.71L1277.22 215.103L1277.66 214.496L1278.09 213.889L1278.53 213.281L1278.97 212.674L1279.4 212.067L1279.84 211.46L1280.28 210.852L1280.71 210.245L1281.15 209.638L1281.59 209.031L1282.02 208.423L1282.46 207.816L1282.9 207.209L1283.33 206.602L1283.77 205.995L1284.21 205.387L1284.64 204.78L1285.08 204.173L1285.52 203.566L1285.95 202.958L1286.39 202.351L1286.83 201.744L1287.26 201.137L1287.7 200.53L1288.14 199.922L1288.57 199.315L1289.01 198.708L1289.44 198.101L1289.88 197.494L1290.32 196.886L1290.75 196.279L1291.19 195.672L1291.63 195.065L1292.06 194.457L1292.5 193.85L1292.94 193.243L1293.37 192.636L1293.81 192.029L1294.25 191.422L1294.68 190.814L1295.12 190.207L1295.56 189.6L1295.99 188.993L1296.43 188.386L1296.87 187.778L1297.3 187.171L1297.74 186.564L1298.18 185.957L1298.61 185.35L1299.05 184.742L1299.49 184.135L1299.92 183.528L1300.36 182.921L1300.8 182.314L1301.23 181.707L1301.67 181.099L1302.1 180.492L1302.54 179.885L1302.98 179.278L1303.41 178.671L1303.85 178.063L1304.29 177.456L1304.72 176.849L1305.16 176.242L1305.6 175.635L1306.03 175.028L1306.47 174.42L1306.91 173.813L1307.34 173.206L1307.78 172.599L1308.22 171.992L1308.65 171.385L1309.09 170.777L1309.53 170.17L1309.96 169.563L1310.4 168.956L1310.84 168.349L1311.27 167.742L1311.71 167.134L1312.15 166.527L1312.58 165.92L1313.02 165.313L1313.45 164.706L1313.89 164.099L1314.33 163.491L1314.76 162.884L1315.2 162.277L1315.64 161.67L1316.07 161.063L1316.51 160.456L1316.95 159.848L1317.38 159.241L1317.82 158.634L1318.26 158.027L1318.69 157.42L1319.13 156.813L1319.57 156.205L1320 155.598L1320.44 154.991L1320.88 154.384L1321.31 153.777L1321.75 153.17L1322.19 152.562L1322.62 151.955L1323.06 151.348L1323.49 150.741L1323.93 150.134L1324.37 149.527L1324.8 148.92L1325.24 148.312L1325.68 147.705L1326.11 147.098L1326.55 146.491L1326.99 145.884L1327.42 145.277L1327.86 144.669L1328.3 144.062L1328.73 143.455L1329.17 142.848L1329.61 142.241L1330.04 141.634L1330.48 141.026L1330.92 140.419L1331.35 139.812L1331.79 139.205L1332.23 138.598L1332.66 137.991L1333.1 137.383L1333.54 136.776L1333.97 136.169L1334.41 135.562L1334.84 134.955L1335.28 134.348L1335.72 133.74L1336.15 133.133L1336.59 132.526L1337.03 131.919L1337.46 131.312L1337.9 130.704L1338.34 130.097L1338.77 129.49L1339.21 128.883L1339.65 128.276L1340.08 127.669L1340.52 127.061L1340.96 126.454L1341.39 125.847L1341.83 125.24L1342.27 124.633L1342.7 124.025L1343.14 123.418L1343.58 122.811L1344.01 122.204L1344.45 121.597L1344.89 120.99L1345.32 120.382L1345.76 119.775L1346.2 119.168L1346.63 118.561L1347.07 117.954L1347.5 117.346L1347.94 116.739L1348.38 116.132L1348.81 115.525L1349.25 114.918L1349.69 114.31L1350.12 113.703L1350.56 113.096L1351 112.489L1351.43 111.882L1351.87 111.274L1352.31 110.667L1352.74 110.06L1353.18 109.453L1353.62 108.846L1354.05 108.238L1354.49 107.631L1354.93 107.024L1355.36 106.417L1355.8 105.809L1356.24 105.202L1356.67 104.595L1357.11 103.988L1357.55 103.381L1357.98 102.773L1358.42 102.166L1358.86 101.559L1359.29 100.952L1359.73 100.344L1360.17 99.7372L1360.6 99.13L1361.04 98.5228L1361.47 97.9156L1361.91 97.3083L1362.35 96.7011L1362.78 96.0938L1363.22 95.4866L1363.66 94.8793L1364.09 94.2721L1364.53 93.6648L1364.97 93.0576L1365.4 92.4503L1365.84 91.8431L1366.28 91.2358L1366.71 90.6286L1367.15 90.0213L1367.59 89.414L1368.02 88.8068L1368.46 88.1995L1368.9 87.5922L1369.33 86.985L1369.77 86.3777L1370.21 85.7704L1370.64 85.1632L1371.08 84.5559L1371.52 83.9486L1371.95 83.3413L1372.39 82.734L1372.83 82.1268L1373.26 81.5195L1373.7 80.9122L1374.14 80.3049L1374.57 79.6976L1375.01 79.0903L1375.45 78.483L1375.88 77.8757L1376.32 77.2684L1376.76 76.6611L1377.19 76.0538L1377.63 75.4465L1378.07 74.8392L1378.5 74.2319L1378.94 73.6245L1379.38 73.0172L1379.81 72.4099L1380.25 71.8026L1380.69 71.1952L1381.12 70.5879L1381.56 69.9806L1382 69.3733L1382.43 68.7659L1382.87 68.1586L1383.31 67.5513L1383.74 66.9439L1384.18 66.3366L1384.62 65.7292L1385.05 65.1219L1385.49 64.5145L1385.93 63.9072L1386.36 63.2998L1386.8 62.6925L1387.24 62.0851L1387.67 61.4777L1388.11 60.8704L1388.55 60.263L1388.98 59.6556L1389.42 59.0482L1389.86 58.4409L1390.29 57.8335L1390.73 57.2261L1391.17 56.6187L1391.6 56.0113L1392.04 55.4039L1392.48 54.7965L1392.91 54.1892L1393.35 53.5817L1393.79 52.9743L1394.22 52.3669L1394.66 51.7595L1395.1 51.1521L1395.53 50.5447L1395.97 49.9373L1396.41 49.3299L1396.84 48.7224L1397.28 48.115L1397.72 47.5076L1398.15 46.9001L1398.59 46.2927L1399.03 45.6852L1399.46 45.0778L1399.9 44.4704L1400.34 43.8629L1400.77 43.2554L1401.21 42.648L1401.65 42.0405L1402.08 41.4331L1402.52 40.8256L1402.96 40.2181L1403.39 39.6107L1403.83 39.0032L1404.27 38.3957L1404.7 37.7882L1405.14 37.1807L1405.58 36.5733L1406.01 35.9658L1406.45 35.3583L1406.89 34.7508L1407.33 34.1433L1407.76 33.5358L1408.2 32.9283L1408.64 32.3207L1409.07 31.7132L1409.51 31.1057L1409.95 30.4982L1410.38 29.8907L1410.82 29.2831L1411.26 28.6756L1411.69 28.0681L1412.13 27.4605L1412.57 26.853L1413 26.2454L1413.44 25.6379L1413.88 25.0303L1414.31 24.4228L1414.75 23.8152L1415.19 23.2076L1415.62 22.6001L1416.06 21.9925L1416.5 21.3849L1416.94 20.7773L1417.37 20.1697L1417.81 19.5621L1418.25 18.9546L1418.68 18.347L1419.12 17.7394L1419.56 17.1317L1419.99 16.5241L1420.43 15.9165L1420.87 15.3089L1421.3 14.7013L1421.74 14.0936L1422.18 13.486L1422.61 12.8784L1423.05 12.2708L1423.49 11.6631L1423.92 11.0554L1424.36 10.4478L1424.8 9.84017L1425.24 9.23252L1425.67 8.62486L1426.11 8.0172L1426.55 7.40949L1426.98 6.80183L1427.42 6.19417L1427.86 5.58646L1428.29 4.9788L1428.73 4.37109L1429.17 3.76338L1429.6 3.15567L1430.04 2.54796L1430.48 1.94026L1430.92 1.33255L1431.35 0.724837L1431.79 0.117128L1432.23 -0.49063L1432.66 -1.09834C1454.76 -31.8344 1496.8 -38.8553 1526.77 -16.8911C1556.73 5.07322 1563.14 47.6128 1541.04 78.3488L1540.9 78.5438L1270.23 455.016C1259.47 469.971 1255.78 487.135 1260 504.896C1260 504.899 1260 504.902 1260 504.905L1289.07 634.262C1289.07 634.263 1289.07 634.264 1289.07 634.265C1292.77 651.213 1289.46 667.631 1279.2 681.904L1251.73 720.117C1229.63 750.853 1187.59 757.874 1157.62 735.909C1127.66 713.945 1121.25 671.406 1143.35 640.67L1218.06 536.755C1228.82 521.787 1232.32 504.483 1228.29 486.878L1199.21 357.5Z" stroke="url(#paint1_linear)" stroke-width="3"/>
</g>
<defs>
<linearGradient id="paint0_linear" x1="721" y1="363" x2="721" y2="760" gradientUnits="userSpaceOnUse">
<stop stop-color="#0C2452" stop-opacity="0"/>
<stop offset="0.484375" stop-color="#072857"/>
</linearGradient>
<linearGradient id="paint1_linear" x1="1145.63" y1="614.5" x2="1496.35" y2="-174.589" gradientUnits="userSpaceOnUse">
<stop stop-color="#052B62"/>
<stop offset="0.42415" stop-color="#1C5FBE"/>
<stop offset="1" stop-color="#032E6D"/>
</linearGradient>
<clipPath id="clip0">
<rect width="1022" height="760" fill="white" transform="translate(418)"/>
</clipPath>
</defs>
</svg>
